<svg width="59" height="59" viewBox="0 0 59 59" fill="none" xmlns="http://www.w3.org/2000/svg">
<path d="M58.953 39.6012C58.837 39.2342 58.519 38.9672 58.139 38.9132L50.362 37.8242L46.89 31.0452C46.548 30.3762 45.452 30.3762 45.111 31.0452L41.639 37.8242L33.862 38.9132C33.481 38.9662 33.164 39.2342 33.048 39.6012C32.932 39.9682 33.036 40.3692 33.317 40.6332L38.922 45.8992L37.6 53.3252C37.534 53.6992 37.684 54.0772 37.988 54.3032C38.293 54.5292 38.699 54.5642 39.037 54.3922L46 50.8632L52.964 54.3922C53.107 54.4642 53.262 54.5002 53.416 54.5002C53.627 54.5002 53.837 54.4332 54.013 54.3032C54.317 54.0772 54.467 53.6992 54.401 53.3252L53.08 45.8992L58.685 40.6332C58.965 40.3692 59.069 39.9672 58.953 39.6012ZM51.315 44.8112C51.069 45.0422 50.956 45.3832 51.015 45.7152L52.079 51.7012L46.451 48.8492C46.308 48.7772 46.154 48.7412 45.999 48.7412C45.844 48.7412 45.689 48.7772 45.547 48.8492L39.919 51.7012L40.983 45.7152C41.043 45.3822 40.929 45.0422 40.683 44.8112L36.204 40.6032L42.429 39.7312C42.751 39.6862 43.032 39.4862 43.18 39.1962L46 33.6942L48.818 39.1972C48.966 39.4872 49.247 39.6872 49.569 39.7322L55.794 40.6042L51.315 44.8112Z" fill="#060B72"/>
<path d="M0 5.73193V43.6939C5.233 39.6449 16.986 30.4899 22.449 25.7499L0 5.73193Z" fill="#060B72"/>
<path d="M41.872 30.7859L45.111 24.4619C45.453 23.7929 46.549 23.7929 46.89 24.4619L52.322 35.0689L58 35.8639V5.73193L35.587 25.7169L41.872 30.7859Z" fill="#060B72"/>
<path d="M31.299 26.861L56.376 4.5H1.62402L26.7 26.86C27.968 27.993 30.031 27.993 31.299 26.861Z" fill="#060B72"/>
<path d="M26.428 37.4979C26.544 37.1309 26.862 36.8639 27.242 36.8099L39.679 35.0679L40.941 32.6039L34.075 27.0649L32.631 28.3519C31.631 29.2449 30.316 29.6919 29.001 29.6919C27.686 29.6919 26.371 29.2449 25.37 28.3519L23.956 27.0909C18.435 31.9049 6.10497 41.5009 0.948975 45.4889C0.965975 45.4899 0.980975 45.4999 0.999975 45.4999H34.115L26.696 38.5299C26.416 38.2659 26.312 37.8649 26.428 37.4979Z" fill="#060B72"/>
</svg>
