<svg width="60" height="60" viewBox="0 0 60 60" fill="none" xmlns="http://www.w3.org/2000/svg">
<path d="M38.914 0H6.5V60H53.5V14.586L38.914 0ZM34.5 31C34.5 31.553 34.052 32 33.5 32H23.5C22.948 32 22.5 31.553 22.5 31C22.5 30.447 22.948 30 23.5 30H33.5C34.052 30 34.5 30.447 34.5 31ZM16.262 23.479L16.582 22.738C16.873 22.064 17.351 21.531 17.964 21.197L20.168 20.11C19.199 19.488 18.501 18.552 18.085 17.317C17.401 16.9 16.97 16.159 16.97 15.333V14.666C16.97 13.998 17.259 13.373 17.748 12.936C17.844 12.323 18.002 11.747 18.219 11.217C18.321 10.97 18.407 10.785 18.476 10.635C18.522 10.535 18.58 10.411 18.588 10.376C18.591 10.344 18.586 10.223 18.502 9.803C18.437 9.476 18.394 9.176 18.364 8.919C18.327 8.597 18.429 8.274 18.643 8.034C19.091 7.534 19.964 7.557 20.382 8.09C20.458 8.187 20.613 8.345 20.916 8.549C21.428 8.895 22.124 9.051 22.853 8.987C23 8.975 23.15 8.969 23.304 8.969C27.2 8.969 28.487 11.022 28.844 12.92C29.344 13.358 29.638 13.988 29.638 14.665V15.332C29.638 16.158 29.207 16.899 28.523 17.316C28.105 18.556 27.403 19.494 26.428 20.117L28.55 21.2C29.182 21.517 29.685 22.048 29.997 22.731L30.341 23.483L29.667 23.962C27.792 25.296 25.592 26 23.302 26C21.004 26 18.797 25.291 16.918 23.948L16.262 23.479ZM19.5 31C19.5 31.26 19.39 31.52 19.21 31.71C19.02 31.89 18.77 32 18.5 32C18.23 32 17.97 31.89 17.79 31.7C17.61 31.519 17.5 31.26 17.5 31C17.5 30.739 17.61 30.479 17.79 30.29C18.15 29.93 18.84 29.92 19.21 30.29C19.39 30.479 19.5 30.739 19.5 31ZM17.5 36C17.5 35.447 17.948 35 18.5 35H35.5C36.052 35 36.5 35.447 36.5 36C36.5 36.553 36.052 37 35.5 37H18.5C17.948 37 17.5 36.553 17.5 36ZM22.686 47.766C22.655 48.684 21.641 49.028 20.979 48.473C20.044 47.689 19.108 46.906 18.173 46.122C17.183 45.292 18.606 43.885 19.587 44.707C20.001 45.054 20.415 45.4 20.828 45.747C21.096 43.486 21.833 41.306 24.024 40.165C25.166 39.571 26.178 41.297 25.033 41.892C22.863 43.023 22.759 45.599 22.686 47.766ZM37.637 46.259C37.391 45.922 34.213 47.47 33.304 47.142C32.591 46.885 32.056 46.557 31.607 46.075C29.485 47.226 27.071 47.849 25.2 45.816C24.329 44.869 25.739 43.451 26.614 44.402C28.103 46.021 29.954 44.771 31.37 43.902C31.828 43.621 32.476 43.793 32.738 44.261C33.772 46.104 36.273 44.019 37.73 44.129C38.503 44.188 38.939 44.671 39.362 45.25C40.126 46.293 38.389 47.289 37.637 46.259ZM41.21 36.71C41.02 36.89 40.76 37 40.5 37C40.24 37 39.98 36.89 39.79 36.71C39.6 36.52 39.5 36.27 39.5 36C39.5 35.729 39.61 35.479 39.79 35.29C40.17 34.92 40.83 34.92 41.21 35.29C41.39 35.479 41.5 35.739 41.5 36C41.5 36.27 41.4 36.52 41.21 36.71ZM46.21 36.7C46.02 36.89 45.76 37 45.5 37C45.24 37 44.98 36.89 44.79 36.71C44.6 36.52 44.5 36.27 44.5 36C44.5 35.729 44.61 35.479 44.79 35.29C45.17 34.92 45.83 34.92 46.21 35.29C46.39 35.479 46.5 35.739 46.5 36C46.5 36.26 46.4 36.51 46.21 36.7ZM45.5 32H38.5C37.948 32 37.5 31.553 37.5 31C37.5 30.447 37.948 30 38.5 30H45.5C46.052 30 46.5 30.447 46.5 31C46.5 31.553 46.052 32 45.5 32ZM37.5 16V2L51.5 16H37.5Z" fill="#060B72"/>
</svg>
