<?xml version="1.0" standalone="no"?>
<!DOCTYPE svg PUBLIC "-//W3C//DTD SVG 20010904//EN"
 "http://www.w3.org/TR/2001/REC-SVG-20010904/DTD/svg10.dtd">
<svg version="1.0" xmlns="http://www.w3.org/2000/svg"
 width="1155.000000pt" height="1155.000000pt" viewBox="0 0 1155.000000 1155.000000"
 preserveAspectRatio="xMidYMid meet">

<g transform="translate(0.000000,1155.000000) scale(0.100000,-0.100000)"
fill="#000000" stroke="none">
<path d="M5771 11520 c-2 -8 -221 -2370 -221 -2385 0 -6 -15 -29 -34 -50 l-33
-39 -69 53 c-38 30 -74 58 -81 63 -8 6 -30 -15 -69 -67 -32 -41 -63 -75 -69
-75 -6 0 -46 22 -89 50 l-79 49 -30 -47 c-16 -26 -40 -64 -54 -85 l-23 -37
-91 46 c-50 25 -92 44 -94 42 -1 -2 -21 -40 -44 -85 -23 -46 -47 -83 -54 -83
-7 0 -50 16 -95 35 l-82 35 -24 -54 c-13 -29 -30 -70 -37 -90 -7 -20 -20 -36
-29 -36 -8 0 -51 11 -95 25 -43 14 -82 21 -86 17 -4 -4 -19 -44 -34 -89 -14
-46 -30 -85 -34 -87 -3 -3 -44 4 -91 15 -46 11 -89 18 -95 15 -6 -2 -19 -45
-29 -96 l-19 -92 -56 6 c-31 4 -77 9 -102 12 l-45 6 -12 -93 c-7 -51 -15 -96
-18 -100 -2 -5 -49 -5 -103 -2 -88 5 -99 4 -102 -11 -3 -12 -129 87 -465 366
-253 211 -469 390 -480 398 -18 14 -18 14 -4 -4 8 -11 189 -229 402 -485 329
-396 384 -466 365 -469 -21 -3 -22 -7 -22 -105 l0 -101 -94 -13 c-52 -7 -95
-14 -96 -15 -2 -2 3 -46 10 -98 8 -57 10 -97 4 -100 -5 -4 -50 -14 -99 -24
-73 -15 -90 -22 -86 -35 18 -62 37 -173 31 -179 -3 -4 -46 -20 -95 -37 l-89
-30 30 -90 c16 -49 29 -93 29 -96 0 -3 -40 -23 -90 -43 -49 -21 -90 -41 -90
-46 0 -5 16 -46 36 -91 l35 -83 -22 -17 c-13 -9 -53 -32 -91 -50 l-68 -33 45
-83 c25 -45 45 -87 45 -92 0 -5 -34 -31 -75 -56 -41 -26 -78 -51 -81 -56 -3
-5 18 -44 46 -87 27 -44 50 -81 50 -84 0 -3 -34 -31 -75 -62 -41 -31 -75 -60
-75 -65 0 -4 25 -39 55 -78 30 -39 55 -76 55 -82 0 -5 -15 -21 -32 -35 -32
-24 -54 -26 -1183 -130 -632 -59 -1172 -110 -1200 -114 -37 -5 257 -36 1154
-119 l1203 -111 29 -28 c16 -15 29 -31 29 -36 0 -4 -25 -40 -55 -79 -30 -39
-55 -75 -55 -79 0 -4 34 -33 75 -64 41 -31 75 -59 75 -62 0 -3 -22 -40 -50
-83 -27 -43 -50 -80 -50 -84 0 -3 36 -28 80 -56 44 -29 80 -55 80 -59 0 -4
-18 -41 -40 -82 -22 -41 -40 -81 -40 -87 0 -7 37 -31 83 -54 45 -23 84 -43 86
-45 2 -2 -13 -42 -33 -90 -20 -47 -36 -89 -36 -93 0 -4 37 -22 82 -41 46 -18
87 -37 92 -41 4 -4 -6 -49 -23 -100 -17 -51 -30 -93 -28 -94 1 -1 44 -15 95
-30 66 -20 92 -33 92 -44 -1 -9 -9 -52 -20 -96 -10 -44 -17 -82 -15 -86 2 -3
44 -14 92 -24 48 -10 91 -20 95 -24 3 -3 0 -49 -7 -101 -8 -52 -13 -96 -11
-97 1 -1 46 -8 100 -14 l98 -12 -3 -101 c-3 -93 -1 -101 17 -106 17 -4 -41
-79 -374 -478 -216 -261 -392 -475 -390 -476 2 -2 216 174 476 390 355 296
472 389 472 373 0 -20 3 -20 104 -13 l103 7 13 -103 13 -102 27 6 c15 2 61 8
102 12 l75 6 18 -85 c10 -47 21 -90 25 -96 5 -8 31 -6 94 9 48 11 91 20 95 20
5 0 21 -39 36 -88 15 -48 30 -90 34 -95 4 -4 47 6 95 23 49 16 92 28 96 25 4
-2 22 -43 40 -90 18 -47 39 -85 46 -85 7 0 49 16 93 35 l81 34 14 -22 c7 -12
30 -52 50 -90 l37 -67 84 46 c47 25 89 43 94 40 5 -3 30 -40 56 -81 25 -41 51
-75 56 -75 6 0 29 13 52 28 23 16 58 38 79 50 l36 23 62 -80 62 -80 79 61 79
61 30 -28 c16 -16 32 -36 35 -44 2 -9 54 -551 115 -1205 60 -654 111 -1191
113 -1192 1 -1 53 540 114 1204 l112 1206 29 29 30 30 78 -61 c43 -34 79 -60
80 -59 1 1 29 37 63 80 l61 77 58 -36 c31 -20 66 -43 77 -50 11 -8 24 -14 30
-14 6 0 29 30 53 68 23 37 46 73 51 81 7 11 26 5 100 -33 l90 -47 46 91 45 90
53 -21 c28 -11 71 -29 94 -39 l41 -18 13 31 c7 18 25 60 40 94 l28 62 73 -23
c40 -12 83 -26 95 -30 20 -6 24 0 49 81 16 48 31 92 34 96 4 4 49 -2 100 -13
51 -11 94 -19 96 -18 2 2 12 43 23 92 10 48 22 90 25 94 4 3 48 1 98 -6 67 -8
94 -8 99 0 4 6 10 41 14 77 12 123 3 115 116 107 l98 -7 3 25 c3 22 44 -9 418
-320 228 -190 449 -373 490 -407 l75 -62 -41 50 c-23 28 -204 246 -403 485
-245 295 -356 436 -345 438 13 3 15 20 13 105 l-2 102 94 13 c52 8 96 15 98
18 3 2 -1 45 -7 95 -7 49 -10 94 -8 98 3 5 46 16 96 26 102 21 100 17 75 120
-25 101 -27 98 75 130 50 16 90 34 90 39 0 6 -12 46 -26 89 -14 43 -24 83 -21
91 3 7 44 27 91 46 47 18 86 34 86 36 0 2 -16 42 -35 88 -19 47 -35 88 -35 93
0 4 38 28 85 53 47 25 85 46 85 48 0 1 -18 38 -40 82 -22 44 -40 85 -40 92 0
7 36 35 80 62 44 27 80 50 80 52 0 2 -22 38 -50 81 -27 43 -50 83 -50 88 0 6
34 35 75 64 41 30 75 57 75 60 0 2 -25 37 -55 76 -30 40 -55 77 -55 82 0 5 13
22 29 37 l28 27 1206 112 c663 61 1204 113 1203 114 -1 2 -542 53 -1202 114
-1002 92 -1203 113 -1223 128 -50 35 -49 44 12 125 31 41 57 77 57 79 0 3 -34
30 -75 61 -41 31 -75 61 -75 67 0 6 13 29 28 52 16 23 38 58 50 78 l22 37 -80
51 c-44 29 -80 56 -80 62 0 5 18 45 40 89 22 44 40 82 40 85 0 2 -36 23 -80
45 -45 22 -83 46 -86 53 -2 7 12 50 31 95 19 46 35 85 35 86 0 2 -40 20 -90
40 -49 21 -90 43 -90 49 0 7 11 47 25 90 14 43 25 82 25 87 0 5 -40 22 -90 37
-103 30 -101 28 -75 138 23 94 25 90 -69 110 -46 10 -89 21 -96 25 -8 5 -8 30
1 99 6 50 9 94 6 97 -3 3 -38 10 -79 15 -126 17 -113 4 -110 119 3 86 2 100
-12 100 -9 0 -16 2 -16 5 0 3 177 217 394 477 216 260 392 474 390 476 -1 2
-216 -175 -478 -392 -262 -218 -478 -396 -481 -396 -3 0 -5 10 -5 22 0 21 -2
21 -100 14 l-99 -6 -6 32 c-3 18 -9 62 -13 98 -8 74 0 71 -138 56 l-72 -8 -22
96 c-12 54 -27 96 -33 96 -10 0 -40 -7 -164 -35 -19 -4 -24 4 -53 90 -17 52
-35 95 -39 95 -4 0 -41 -11 -81 -25 -40 -14 -81 -25 -90 -25 -12 0 -28 27 -54
90 l-38 90 -36 -16 c-98 -42 -136 -55 -148 -50 -7 3 -32 42 -54 86 -23 45 -44
80 -48 78 -4 -2 -44 -22 -90 -46 l-82 -42 -55 84 -56 85 -78 -49 c-43 -28 -83
-50 -89 -50 -6 0 -37 34 -68 75 -31 41 -58 75 -59 75 -1 0 -38 -27 -81 -60
l-78 -61 -28 29 -29 28 -109 1185 c-107 1149 -115 1240 -119 1229z m26 -687
c-3 -10 -5 -4 -5 12 0 17 2 24 5 18 2 -7 2 -21 0 -30z m-49 -3709 l-3 -1248
-194 400 -193 399 193 2089 194 2089 3 -1241 c1 -682 1 -1802 0 -2488z m53
3613 c-8 -8 -11 -4 -11 14 0 33 14 47 18 19 2 -12 -1 -27 -7 -33z m9 -74 c-14
-28 -14 -28 -18 -5 -5 34 6 58 20 44 9 -9 8 -18 -2 -39z m-4 -91 c-15 -15 -16
-14 -16 9 0 14 6 31 13 38 10 10 13 8 15 -10 2 -12 -3 -29 -12 -37z m5 -86
l-21 -20 0 23 c0 14 8 33 18 44 17 19 17 19 20 -3 2 -13 -5 -31 -17 -44z m5
-85 l-26 -26 0 25 c0 13 10 35 23 48 l22 24 3 -22 c2 -14 -6 -33 -22 -49z m34
-45 c0 -7 -13 -25 -30 -41 l-30 -29 0 24 c0 13 10 34 21 47 22 23 39 22 39 -1z
m-29 -130 l-31 -31 0 30 c0 18 10 40 28 58 l27 29 3 -28 c3 -20 -5 -35 -27
-58z m5 -75 c-35 -35 -36 -35 -36 -11 0 14 14 38 33 58 31 32 32 32 35 11 3
-15 -8 -34 -32 -58z m5 -85 c-39 -39 -41 -39 -41 -16 0 14 15 39 38 63 35 36
37 37 40 16 3 -15 -9 -35 -37 -63z m49 -30 c0 -6 -20 -32 -45 -56 -42 -41 -45
-43 -45 -20 0 14 15 39 37 62 35 36 53 41 53 14z m-44 -145 l-46 -46 0 30 c0
21 12 41 43 73 l42 43 3 -27 c3 -21 -6 -37 -42 -73z m5 -75 c-47 -47 -51 -49
-51 -26 0 16 17 41 48 73 43 44 47 46 50 26 3 -16 -11 -37 -47 -73z m5 -85
c-51 -51 -56 -54 -56 -31 0 16 18 43 53 78 47 48 52 51 55 31 3 -16 -12 -38
-52 -78z m64 -14 c0 -7 -27 -39 -60 -72 -54 -53 -60 -57 -60 -35 0 16 18 42
52 77 48 49 68 58 68 30z m-59 -161 c-61 -60 -61 -61 -61 -31 0 22 14 43 58
88 56 57 57 57 60 31 3 -22 -8 -39 -57 -88z m5 -75 c-59 -59 -66 -63 -66 -41
0 17 20 45 63 88 55 55 62 60 65 41 3 -16 -14 -40 -62 -88z m5 -85 c-63 -63
-71 -68 -71 -46 0 17 21 46 68 93 59 59 67 65 70 46 3 -16 -15 -41 -67 -93z
m5 -85 c-67 -67 -76 -73 -76 -51 0 17 21 45 67 92 56 56 69 65 76 52 7 -13 -7
-33 -67 -93z m0 -90 c-74 -74 -76 -75 -76 -46 0 23 15 45 73 103 69 70 72 72
75 46 3 -22 -10 -40 -72 -103z m7 -73 c-67 -68 -78 -76 -81 -57 -3 16 17 42
75 101 67 68 78 76 81 57 3 -16 -17 -42 -75 -101z m87 14 c0 -9 -38 -55 -85
-102 -74 -74 -85 -81 -85 -60 0 17 23 48 77 102 43 43 81 78 85 78 5 0 8 -8 8
-18z m-76 -184 c-76 -76 -89 -86 -92 -67 -5 32 158 196 171 173 7 -13 -10 -36
-79 -106z m-3 -92 c-87 -87 -91 -90 -91 -61 0 24 17 47 88 118 83 83 87 86 90
61 3 -23 -11 -42 -87 -118z m-407 92 c11 -87 28 -319 23 -324 -3 -3 -38 -10
-79 -15 -40 -5 -84 -11 -98 -14 l-25 -6 -32 183 c-18 100 -31 184 -29 185 3 3
181 29 217 32 12 1 18 -10 23 -41z m60 -15 c-8 -69 -14 -81 -14 -27 0 21 -3
49 -6 62 -5 16 -2 22 10 22 14 0 15 -8 10 -57z m502 35 c-3 -13 -6 -45 -7 -73
l-1 -50 -9 40 c-14 67 -11 105 7 105 12 0 15 -6 10 -22z m187 1 c92 -11 98
-13 94 -33 -3 -11 -18 -93 -33 -181 -15 -88 -28 -161 -29 -162 -3 -5 -195 24
-202 30 -5 6 10 227 23 324 5 37 9 42 28 39 11 -3 65 -10 119 -17z m-1024 -71
c18 -92 51 -286 51 -301 0 -9 -31 -20 -92 -33 -51 -10 -97 -19 -102 -19 -8 0
-106 345 -101 353 3 3 205 50 222 51 6 1 16 -23 22 -51z m1299 21 c71 -16 92
-24 92 -37 0 -9 -20 -89 -44 -177 -50 -184 -34 -170 -172 -140 -55 13 -74 21
-74 34 0 15 42 261 56 323 4 22 10 27 27 23 12 -2 64 -14 115 -26z m-610 -136
c-79 -80 -93 -90 -96 -72 -3 16 20 45 90 116 79 80 93 90 96 72 3 -16 -20 -45
-90 -116z m-928 -68 c24 -88 43 -166 44 -173 1 -9 -34 -24 -98 -43 -54 -17
-99 -29 -100 -27 -2 2 -30 80 -63 173 l-61 170 111 37 c62 20 115 34 119 30 3
-4 25 -79 48 -167z m1797 134 c54 -17 101 -33 104 -35 6 -3 -19 -76 -106 -310
l-16 -42 -97 31 c-53 17 -98 32 -100 33 -1 0 19 80 45 178 30 110 52 176 60
176 7 0 57 -14 110 -31z m-767 -37 c0 -9 -45 -62 -100 -117 -86 -86 -100 -96
-100 -75 0 18 26 51 92 117 51 51 96 93 100 93 5 0 8 -8 8 -18z m-1285 -179
c33 -91 61 -169 63 -173 3 -9 -187 -85 -194 -77 -16 16 -152 323 -146 329 9 8
194 86 207 87 6 1 37 -74 70 -166z m2322 115 c54 -22 99 -42 101 -43 1 -1
-139 -305 -154 -333 -2 -4 -177 68 -186 77 -11 10 113 341 128 341 7 0 57 -19
111 -42z m-1128 -134 c-88 -89 -105 -101 -107 -83 -5 32 188 226 201 203 7
-13 -13 -39 -94 -120z m-1436 -99 l75 -160 -91 -47 c-51 -25 -95 -43 -99 -40
-18 18 -176 307 -172 314 9 15 199 106 206 100 4 -4 40 -79 81 -167z m1435 8
c-97 -97 -103 -102 -106 -77 -3 23 13 44 100 131 97 97 103 102 106 77 3 -23
-13 -44 -100 -131z m1370 112 c48 -25 93 -49 100 -53 10 -7 -8 -46 -73 -158
-48 -82 -91 -153 -95 -158 -12 -12 -186 80 -182 96 10 36 146 318 155 318 5 0
48 -20 95 -45z m-1365 -187 c-91 -92 -109 -105 -111 -87 -3 17 23 48 105 131
91 92 109 105 111 87 3 -17 -23 -48 -105 -131z m-406 90 c-3 -24 -15 -158 -28
-298 -12 -140 -25 -259 -29 -263 -11 -13 -231 49 -354 99 -60 25 -146 65 -190
90 -87 48 -259 167 -264 183 -7 21 343 140 533 180 111 24 265 49 309 50 28 1
29 0 23 -41z m682 26 c137 -20 301 -56 426 -95 144 -45 306 -110 302 -122 -7
-21 -194 -148 -297 -201 -58 -30 -146 -70 -195 -89 -93 -35 -302 -93 -309 -86
-5 5 -56 542 -56 584 0 30 -6 29 129 9z m2391 13 c0 -1 -612 -614 -1360 -1362
l-1361 -1360 102 210 c55 116 140 290 187 389 l87 179 1170 973 c1156 961
1175 976 1175 971z m-5560 -29 c0 -6 -6 -5 -15 2 -8 7 -15 14 -15 16 0 2 7 1
15 -2 8 -4 15 -11 15 -16z m1214 -152 c47 -82 86 -152 86 -155 0 -9 -170 -114
-176 -109 -11 12 -204 292 -204 297 0 11 195 129 202 122 3 -3 45 -73 92 -155z
m86 -1211 l1365 -1366 -165 79 c-91 44 -269 131 -397 193 l-232 114 -958 1155
c-1064 1284 -987 1190 -982 1190 2 0 618 -614 1369 -1365z m3210 1304 c52 -34
96 -62 98 -64 1 -1 -45 -70 -104 -154 -66 -95 -110 -148 -118 -144 -58 35
-161 106 -160 110 3 12 180 313 184 313 3 0 48 -27 100 -61z m1080 47 c0 -2
-8 -10 -17 -17 -16 -13 -17 -12 -4 4 13 16 21 21 21 13z m-5530 -43 c0 -13 -3
-13 -15 -3 -8 7 -15 16 -15 21 0 5 7 6 15 3 8 -4 15 -13 15 -21z m2950 -1 c0
-9 -52 -69 -115 -132 -98 -98 -115 -111 -115 -90 0 18 29 54 107 132 59 60
111 108 115 108 5 0 8 -8 8 -18z m2520 -27 c-7 -8 -17 -15 -22 -15 -6 0 -5 7
2 15 7 8 17 15 22 15 6 0 5 -7 -2 -15z m-5410 -27 c0 -17 -3 -18 -15 -8 -8 7
-15 19 -15 26 0 8 6 11 15 8 8 -4 15 -15 15 -26z m2781 -161 c-98 -99 -117
-114 -119 -96 -5 31 219 258 229 232 5 -14 -22 -47 -110 -136z m-2711 96 c0
-25 0 -26 -20 -8 -11 10 -20 27 -20 37 0 16 3 17 20 8 12 -7 20 -21 20 -37z
m5290 32 c-7 -8 -19 -15 -27 -15 -13 0 -13 3 -3 15 7 8 19 15 27 15 13 0 13
-3 3 -15z m-4490 -154 c55 -80 100 -147 99 -150 0 -3 -36 -32 -81 -65 -68 -50
-82 -57 -93 -45 -46 46 -222 265 -218 272 9 15 177 137 184 135 5 -2 53 -68
109 -147z m3758 69 c45 -34 82 -66 82 -70 0 -3 -52 -68 -116 -144 -80 -94
-119 -134 -127 -128 -7 5 -44 34 -83 64 l-71 54 106 151 c62 89 110 148 116
144 5 -4 47 -36 93 -71z m-4498 -2 c0 -30 0 -31 -20 -13 -11 10 -20 29 -20 42
0 21 3 22 20 13 13 -7 20 -21 20 -42z m2653 -130 c-110 -111 -118 -117 -121
-92 -3 23 15 45 115 146 110 111 118 117 121 92 3 -23 -15 -45 -115 -146z
m2522 152 c-10 -11 -27 -20 -38 -20 -19 0 -20 1 -2 20 10 11 27 20 38 20 19 0
20 -1 2 -20z m-3828 -81 c-9 -121 -40 -271 -83 -399 -35 -102 -159 -370 -172
-370 -4 0 -111 88 -239 194 l-232 194 72 59 c170 140 317 237 522 345 72 37
132 68 134 68 2 0 1 -41 -2 -91z m2473 13 c188 -99 389 -234 548 -370 l33 -28
-223 -185 c-123 -102 -228 -189 -235 -193 -9 -5 -30 29 -69 106 -107 213 -162
385 -189 595 -8 63 -15 121 -15 129 0 21 25 12 150 -54z m-3760 -9 c0 -35 0
-36 -20 -18 -11 10 -20 31 -20 47 0 26 2 28 20 18 14 -8 20 -21 20 -47z m5065
17 c-10 -11 -29 -20 -43 -20 -24 0 -25 1 -7 20 10 11 29 20 43 20 24 0 25 -1
7 -20z m-2467 -167 c-103 -104 -124 -120 -126 -102 -3 17 25 51 120 146 103
104 124 120 126 102 3 -17 -25 -51 -120 -146z m-2538 95 c0 -40 0 -41 -20 -23
-12 11 -20 31 -20 52 0 31 2 33 20 23 15 -8 20 -21 20 -52z m1393 -168 c53
-123 97 -229 97 -237 0 -7 -8 -13 -19 -13 -15 0 -37 43 -110 213 -86 200 -108
274 -78 265 6 -3 56 -105 110 -228z m2027 -17 c-57 -126 -104 -229 -105 -231
-5 -7 -35 11 -35 21 0 21 192 432 208 445 10 8 19 9 26 2 6 -6 -26 -88 -94
-237z m1535 197 c-10 -12 -31 -20 -48 -20 -29 0 -30 0 -12 20 10 12 31 20 48
20 29 0 30 0 12 -20z m-4565 -112 c57 -68 110 -131 119 -141 13 -16 13 -20
-10 -43 l-25 -24 -134 111 c-74 61 -139 115 -145 121 -7 6 7 24 40 54 28 24
51 44 51 44 1 0 48 -55 104 -122z m992 89 c18 -15 52 -80 102 -196 42 -96 75
-176 73 -177 -1 -1 -11 -4 -21 -6 -17 -2 -33 28 -107 200 -48 111 -84 202 -81
202 4 0 19 -10 34 -23z m3167 -16 c24 -21 41 -44 37 -50 -4 -6 -68 -61 -142
-122 l-135 -111 -24 22 -24 22 117 139 c64 77 119 139 122 139 3 -1 25 -18 49
-39z m-4491 -26 c3 -43 1 -47 -12 -36 -20 17 -22 95 -3 89 7 -3 13 -26 15 -53z
m3357 23 c-52 -122 -162 -352 -170 -355 -6 -1 -16 1 -22 5 -18 11 128 329 165
359 37 31 43 29 27 -9z m-745 -6 c0 -9 -58 -76 -130 -147 -110 -110 -130 -126
-130 -105 0 18 32 57 122 147 68 68 126 123 130 123 5 0 8 -8 8 -18z m784
-238 c-42 -93 -78 -170 -79 -172 -5 -6 -35 11 -35 19 0 10 142 325 169 374
l16 30 3 -41 c2 -34 -11 -72 -74 -210z m1451 226 c-12 -13 -31 -20 -53 -20
-34 0 -35 0 -17 20 12 13 31 20 53 20 34 0 35 0 17 -20z m-4775 -73 c0 -49 0
-50 -20 -32 -15 14 -20 31 -20 68 0 49 0 50 20 32 15 -14 20 -31 20 -68z
m1225 -131 c73 -168 76 -180 59 -193 -9 -7 -18 -12 -20 -10 -1 1 -34 77 -73
169 -70 164 -77 190 -65 223 9 22 5 29 99 -189z m133 177 c28 -24 135 -274
123 -286 -5 -5 -16 -7 -23 -5 -10 4 -91 182 -135 296 -7 17 11 15 35 -5z
m1770 -137 c-59 -128 -74 -153 -89 -149 -11 3 -19 9 -19 13 0 4 24 60 54 126
41 89 63 125 87 142 17 12 33 22 35 22 1 0 -29 -69 -68 -154z m-3080 102 c7
-7 12 -37 12 -67 0 -53 0 -54 -20 -36 -15 13 -20 31 -20 67 0 49 7 57 28 36z
m2365 -160 c-107 -108 -129 -125 -131 -107 -3 17 26 52 125 151 107 108 129
125 131 107 3 -17 -26 -52 -125 -151z m2307 157 c-7 -9 -29 -15 -52 -15 -35 0
-39 2 -28 15 7 9 29 15 52 15 35 0 39 -2 28 -15z m-3276 -6 c18 -9 36 -37 67
-109 39 -93 43 -120 16 -120 -7 0 -36 54 -64 120 -28 66 -49 120 -47 120 1 0
14 -5 28 -11z m1599 -113 c-34 -76 -52 -106 -64 -106 -10 0 -20 3 -22 8 -3 4
15 49 39 100 30 64 50 95 66 101 13 5 24 8 26 6 1 -1 -18 -50 -45 -109z
m-2923 1 c0 -59 0 -60 -20 -42 -16 14 -20 31 -20 78 0 59 0 60 20 42 16 -14
20 -31 20 -78z m1471 -12 c23 -53 27 -70 17 -77 -7 -4 -17 -7 -21 -5 -9 2 -77
153 -77 169 0 5 12 2 26 -5 18 -9 36 -36 55 -82z m1778 -96 c-34 -74 -63 -136
-65 -138 -3 -3 -11 2 -19 10 -14 14 -9 30 45 148 33 73 66 143 72 155 11 20
12 20 20 -10 7 -27 -1 -52 -53 -165z m-405 97 c-33 -69 -54 -90 -68 -67 -3 5
6 36 21 69 19 45 33 64 52 70 14 5 27 8 29 7 1 -1 -14 -36 -34 -79z m1701 64
c-13 -14 -31 -20 -63 -20 -44 0 -45 0 -27 20 13 14 31 20 63 20 44 0 45 0 27
-20z m-3486 -140 c57 -133 61 -145 45 -157 -10 -7 -18 -12 -20 -10 -15 17
-106 249 -106 269 1 26 11 53 17 46 1 -2 30 -68 64 -148z m1239 -37 c-124
-124 -133 -132 -136 -107 -3 23 16 47 130 161 124 124 133 132 136 107 3 -23
-16 -47 -130 -161z m-780 150 c12 -10 27 -34 35 -55 15 -35 14 -36 -6 -42 -12
-3 -22 -4 -22 -3 -6 11 -45 107 -45 111 0 11 18 6 38 -11z m-1470 -5 c7 -7 12
-40 12 -77 0 -63 0 -64 -20 -46 -16 14 -20 31 -20 77 0 58 6 68 28 46z m2719
-38 c-20 -45 -42 -61 -60 -44 -16 17 40 94 68 94 10 0 8 -13 -8 -50z m-1156 9
c22 -22 21 -42 -2 -47 -9 -1 -22 12 -32 33 -14 30 -15 35 -2 35 8 0 24 -9 36
-21z m2887 1 c-10 -16 -24 -20 -67 -20 -53 0 -54 0 -36 20 13 15 31 20 67 20
46 0 48 -1 36 -20z m-1810 -15 c-7 -16 -19 -25 -35 -25 -20 0 -22 3 -13 19 10
19 25 29 47 30 10 1 10 -5 1 -24z m-2568 -87 c0 -62 -2 -69 -15 -58 -11 9 -15
32 -15 82 0 62 2 69 15 58 11 -9 15 -32 15 -82z m1575 82 c4 -6 -5 -10 -19
-10 -14 0 -26 5 -26 10 0 6 9 10 19 10 11 0 23 -4 26 -10z m608 -172 c-116
-116 -139 -135 -141 -117 -3 17 28 54 135 161 116 116 139 135 141 117 3 -17
-28 -54 -135 -161z m307 172 c0 -5 -8 -10 -17 -10 -15 0 -16 2 -3 10 19 12 20
12 20 0z m-2735 -144 c109 -132 114 -140 98 -158 -9 -10 -20 -18 -25 -18 -10
0 -271 217 -276 229 -4 10 69 92 79 89 5 -2 61 -66 124 -142z m3455 106 c0
-27 -78 -212 -89 -212 -3 0 -12 4 -20 9 -12 8 -5 30 39 125 51 112 70 133 70
78z m1253 -18 l37 -41 -141 -117 c-136 -114 -141 -117 -160 -100 -10 9 -19 21
-19 27 0 17 233 288 240 280 4 -4 23 -26 43 -49z m-3534 -195 c-8 -5 -17 -9
-20 -9 -10 0 -79 173 -79 197 0 64 15 50 63 -62 41 -96 48 -118 36 -126z
m3399 211 c-11 -16 -24 -20 -72 -20 -58 0 -59 0 -41 20 14 15 31 20 72 20 51
0 53 -1 41 -20z m-2645 -57 c-3 -38 -8 -86 -12 -107 l-6 -39 -110 -27 c-233
-58 -448 -153 -642 -283 l-112 -75 -81 66 -81 65 28 24 c125 104 386 252 566
321 133 52 374 117 444 121 9 1 11 -17 6 -66z m842 35 c267 -61 569 -201 796
-369 92 -69 93 -59 -11 -144 l-68 -56 -77 55 c-198 143 -456 257 -703 312 -53
12 -84 24 -86 34 -3 8 -8 57 -11 108 l-7 93 38 -6 c22 -4 80 -16 129 -27z
m-2455 -86 c0 -74 0 -75 -20 -57 -17 15 -20 31 -20 93 0 74 0 75 20 57 17 -15
20 -31 20 -93z m2260 45 c0 -7 -65 -77 -145 -157 -122 -122 -145 -141 -145
-120 0 18 35 60 137 162 126 127 153 147 153 115z m1948 3 c-11 -17 -24 -20
-77 -20 -63 0 -64 0 -46 20 14 16 31 20 77 20 56 0 58 -1 46 -20z m-4148 -103
c0 -79 0 -80 -20 -62 -17 15 -20 31 -20 98 0 79 0 80 20 62 17 -15 20 -31 20
-98z m3105 28 c-30 -72 -50 -105 -61 -105 -27 0 -24 23 13 104 37 83 38 84 50
58 8 -21 8 -34 -2 -57z m-2362 -89 c1 -12 -5 -22 -14 -24 -12 -2 -24 15 -44
61 -23 56 -25 68 -14 88 12 23 13 22 41 -41 16 -35 30 -73 31 -84z m-1211 22
c73 -61 134 -112 136 -114 7 -5 -122 -164 -131 -161 -5 1 -73 48 -152 102
-118 83 -141 103 -134 117 17 32 129 168 139 168 5 0 69 -50 142 -112z m4939
17 c39 -52 70 -97 68 -98 -2 -2 -71 -50 -152 -107 -139 -96 -149 -101 -162
-84 -7 11 -35 48 -63 83 l-50 64 141 119 c77 65 142 118 143 118 1 0 35 -43
75 -95z m-4411 -33 c0 -84 0 -85 -20 -67 -17 15 -20 31 -20 103 0 84 0 85 20
67 17 -15 20 -31 20 -103z m4034 93 c-5 -11 -23 -15 -76 -15 -62 0 -69 2 -58
15 9 10 32 15 76 15 52 0 62 -3 58 -15z m-2036 -182 c-120 -120 -144 -140
-146 -122 -3 17 29 55 140 166 120 120 144 140 146 122 3 -17 -29 -55 -140
-166z m-1938 34 c0 -89 0 -90 -20 -72 -17 16 -20 31 -20 108 0 89 0 90 20 72
17 -16 20 -31 20 -108z m3024 101 c5 -22 -21 -108 -33 -108 -3 0 -12 4 -20 9
-12 8 -10 18 9 65 24 61 34 68 44 34z m-2469 -54 c15 -39 15 -48 4 -55 -22
-14 -27 -11 -39 27 -12 36 -6 89 9 80 4 -3 16 -26 26 -52z m3375 48 c0 -22
-29 -32 -99 -32 -73 0 -74 0 -56 20 15 16 31 20 87 20 37 0 68 -4 68 -8z
m-1987 -214 c-137 -137 -148 -147 -151 -122 -3 23 18 49 145 176 137 137 148
147 151 122 3 -23 -18 -49 -145 -176z m-1883 65 c0 -84 -2 -94 -15 -83 -11 9
-15 35 -15 107 0 84 2 94 15 83 11 -9 15 -35 15 -107z m3000 71 c14 -36 -4
-68 -30 -54 -19 10 -19 12 -3 45 9 19 18 35 20 35 2 0 8 -12 13 -26z m820 18
c0 -23 -30 -32 -104 -32 -78 0 -79 0 -61 20 15 17 31 20 92 20 40 0 73 -4 73
-8z m-2511 -509 c-24 -260 -47 -473 -51 -473 -6 0 -491 398 -727 596 -16 14
153 128 304 204 132 68 252 112 400 150 99 26 110 27 114 12 2 -10 -16 -230
-40 -489z m1024 437 c132 -45 334 -146 461 -229 106 -71 108 -73 90 -91 -50
-48 -719 -598 -721 -592 -2 5 -93 963 -93 977 0 7 177 -37 263 -65z m-2273
-72 c0 -88 -2 -99 -15 -88 -12 10 -15 36 -15 112 0 88 2 99 15 88 12 -10 15
-36 15 -112z m386 96 c4 -17 2 -29 -7 -35 -20 -12 -33 5 -25 35 8 33 24 33 32
0z m-482 -455 c-18 -30 -294 -154 -431 -194 -109 -32 -297 -65 -368 -65 l-54
0 24 54 c69 157 239 424 370 584 l76 92 194 -232 c106 -128 192 -235 189 -239z
m1924 274 c-128 -128 -154 -150 -156 -132 -3 17 31 57 150 176 128 128 154
150 156 132 3 -17 -31 -57 -150 -176z m2023 104 c141 -174 258 -355 355 -548
l46 -92 -88 7 c-116 9 -263 39 -394 81 -137 45 -374 161 -366 180 6 17 368
455 376 455 3 0 35 -37 71 -83z m-141 65 c0 -23 -30 -32 -109 -32 -83 0 -84 0
-66 20 15 17 31 20 97 20 43 0 78 -4 78 -8z m-4681 -45 c25 -19 92 -66 149
-106 l102 -72 -51 -77 c-29 -42 -55 -81 -60 -86 -9 -10 -319 163 -319 177 0
11 120 197 127 197 3 0 26 -15 52 -33z m1041 -105 c0 -104 0 -105 -20 -87 -18
16 -20 31 -20 123 0 104 0 105 20 87 18 -16 20 -31 20 -123z m2914 89 c-9 -9
-32 22 -27 36 5 12 9 11 19 -8 7 -13 11 -26 8 -28z m1406 -53 c33 -51 60 -97
60 -103 0 -5 -71 -50 -157 -99 -140 -79 -159 -87 -168 -72 -5 10 -29 47 -53
83 -23 36 -41 70 -39 76 3 10 277 206 290 207 4 0 35 -41 67 -92z m-4050 68
c0 -2 -7 -9 -15 -16 -13 -11 -14 -10 -9 4 5 14 24 23 24 12z m3320 -14 c0 -24
-30 -32 -114 -32 -88 0 -89 0 -71 20 15 17 31 20 102 20 45 0 83 -4 83 -8z
m-3530 -141 c0 -113 0 -114 -20 -96 -18 16 -20 31 -20 127 0 106 0 108 20 96
18 -12 20 -24 20 -127z m1860 116 c0 -7 -72 -84 -160 -172 -134 -134 -160
-156 -160 -135 0 19 38 63 152 177 140 141 168 162 168 130z m-1800 -171 c0
-118 0 -119 -20 -101 -18 16 -20 31 -20 132 0 111 0 113 20 101 18 -12 20 -24
20 -132z m3410 119 c-9 -11 -35 -15 -107 -15 -84 0 -94 2 -83 15 9 11 35 15
107 15 84 0 94 -2 83 -15z m-1767 -207 c-132 -132 -159 -155 -161 -137 -3 17
32 58 155 181 132 132 159 155 161 137 3 -17 -32 -58 -155 -181z m-1583 35 c0
-110 -2 -124 -15 -113 -12 10 -15 38 -15 131 0 101 2 118 15 113 12 -5 15 -29
15 -131z m3300 112 c-10 -12 -36 -15 -112 -15 -88 0 -99 2 -88 15 10 12 36 15
112 15 88 0 99 -2 88 -15z m-1712 -232 c-150 -151 -163 -161 -166 -137 -3 23
19 50 160 191 150 151 163 161 166 137 3 -23 -19 -50 -160 -191z m-1528 65 c0
-115 -2 -129 -15 -118 -12 10 -15 38 -15 136 0 106 2 123 15 118 12 -5 15 -30
15 -136z m3185 102 c-16 -18 -31 -20 -123 -20 -104 0 -105 0 -87 20 16 18 31
20 123 20 104 0 105 0 87 -20z m-4518 -76 c81 -47 152 -89 156 -93 5 -5 -13
-49 -40 -98 l-48 -90 -70 32 c-39 18 -114 53 -168 78 l-98 46 22 43 c33 67 90
168 94 168 2 0 70 -39 152 -86z m5560 -29 c28 -55 50 -101 48 -103 -7 -7 -318
-152 -326 -152 -13 0 -103 184 -93 187 5 2 74 41 154 88 80 46 150 83 155 82
6 -2 33 -48 62 -102z m-4157 -62 c0 -135 0 -136 -20 -118 -18 16 -20 31 -20
147 0 126 0 128 20 118 18 -10 20 -21 20 -147z m1463 -77 c-135 -132 -169
-160 -171 -143 -3 15 39 63 165 189 151 152 168 166 171 143 3 -22 -23 -51
-165 -189z m1602 184 c-16 -18 -31 -20 -128 -20 -109 0 -110 0 -92 20 16 18
31 20 128 20 109 0 110 0 92 -20z m-3017 -12 c8 -8 12 -56 12 -152 0 -138 0
-139 -20 -121 -18 16 -20 31 -20 152 0 73 4 133 8 133 4 0 13 -5 20 -12z
m2972 -36 c0 -25 -30 -32 -139 -32 -113 0 -114 0 -96 20 16 18 31 20 127 20
59 0 108 -4 108 -8z m-2912 -14 c8 -8 12 -57 12 -157 0 -143 0 -144 -20 -126
-18 16 -20 31 -20 157 0 76 4 138 8 138 4 0 13 -5 20 -12z m1532 -21 c0 -7
-79 -91 -175 -187 -146 -146 -175 -171 -175 -150 0 19 41 66 167 192 92 92
170 165 175 162 4 -3 8 -11 8 -17z m-1472 -29 c8 -8 12 -59 12 -162 0 -148 0
-149 -20 -131 -18 16 -20 31 -20 162 0 78 4 143 8 143 4 0 13 -5 20 -12z
m2792 -13 c-10 -12 -38 -15 -132 -15 -106 0 -119 2 -108 15 10 12 38 15 132
15 106 0 119 -2 108 -15z m-1492 -232 c-144 -144 -174 -170 -176 -152 -3 17
35 61 170 196 144 144 174 170 176 152 3 -17 -35 -61 -170 -196z m-1228 30 c0
-137 -2 -154 -15 -143 -12 10 -15 42 -15 167 0 137 2 154 15 143 12 -10 15
-42 15 -167z m-601 78 c58 -70 61 -75 46 -95 -76 -106 -146 -221 -196 -321
-63 -130 -141 -350 -160 -457 l-12 -66 -66 -6 c-36 -4 -86 -9 -110 -13 l-43
-6 7 44 c30 186 116 440 211 625 83 162 239 393 255 377 4 -5 35 -41 68 -82z
m3271 64 c-10 -12 -39 -15 -137 -15 -110 0 -124 2 -113 15 10 12 39 15 137 15
110 0 124 -2 113 -15z m136 -61 c189 -256 327 -574 389 -895 l13 -71 -47 6
c-25 3 -74 8 -107 12 l-62 6 -22 96 c-57 247 -177 511 -323 710 -21 29 -36 59
-34 65 9 21 118 147 128 147 5 0 34 -34 65 -76z m-4570 -9 c87 -41 162 -76
166 -77 6 -2 -65 -184 -76 -195 -2 -2 -334 117 -344 123 -5 3 86 224 93 224 1
0 74 -34 161 -75z m5801 -45 c24 -57 40 -106 36 -110 -16 -14 -334 -123 -340
-117 -3 4 -23 47 -44 96 l-37 89 162 75 c88 42 165 75 171 73 5 -1 29 -49 52
-106z m-3967 -93 c0 -159 0 -160 -20 -142 -18 17 -20 31 -20 178 0 159 0 160
20 142 18 -17 20 -31 20 -178z m2790 178 c0 -12 -19 -12 -23 0 -4 9 -1 12 9 8
7 -3 14 -7 14 -8z m-3636 -10 c-4 -8 -12 -15 -20 -15 -17 0 -18 17 -1 23 22 9
27 7 21 -8z m2009 -217 c-148 -148 -179 -175 -181 -157 -3 17 36 62 175 201
148 148 179 175 181 157 3 -17 -36 -62 -175 -201z m1382 192 c-16 -18 -31 -20
-148 -20 -129 0 -130 0 -112 20 16 18 31 20 148 20 129 0 130 0 112 -20z m314
1 c12 -8 10 -12 -12 -22 -21 -9 -30 -9 -42 1 -8 7 -12 16 -9 21 7 12 45 11 63
0z m-3749 -11 c13 -8 13 -11 -1 -25 -13 -13 -20 -14 -42 -4 -29 13 -34 24 -14
32 20 9 41 7 57 -3z m950 -188 c0 -164 0 -165 -20 -147 -18 17 -20 31 -20 183
0 164 0 165 20 147 18 -17 20 -31 20 -183z m2850 130 c-52 -22 -55 -23 -68 -5
-12 16 -9 20 25 34 29 12 45 14 68 6 l30 -11 -55 -24z m-3836 -3 c5 -5 4 -14
-3 -23 -11 -12 -18 -12 -59 6 -63 27 -70 36 -41 46 23 9 81 -7 103 -29z m3421
11 c-16 -18 -31 -20 -153 -20 -134 0 -135 0 -117 20 16 18 31 20 153 20 134 0
135 0 117 -20z m-1145 -13 c0 -16 -54 -76 -185 -207 -171 -170 -185 -182 -185
-155 0 25 27 57 177 207 98 98 181 178 185 178 5 0 8 -10 8 -23z m-1242 1 c8
-8 12 -63 12 -182 0 -168 0 -169 -20 -151 -18 17 -20 31 -20 182 0 89 4 163 8
163 4 0 13 -5 20 -12z m2931 -4 c7 -7 -2 -12 -74 -43 -50 -21 -73 -26 -82 -19
-21 17 -15 24 45 52 51 23 94 27 111 10z m-4056 -25 c59 -27 65 -33 55 -49
-11 -17 -14 -17 -62 5 -28 12 -64 28 -81 36 -41 18 -42 19 -25 29 24 15 44 12
113 -21z m4136 0 l33 -12 -114 -49 c-104 -44 -114 -47 -125 -31 -7 9 -11 18
-9 20 1 2 43 21 92 42 49 22 89 40 90 40 1 1 16 -4 33 -10z m-4205 -43 c96
-45 107 -55 84 -73 -9 -7 -48 6 -128 45 -94 44 -111 56 -95 62 33 14 39 12
139 -34z m3531 24 c-16 -18 -31 -20 -158 -20 -139 0 -140 0 -122 20 16 18 31
20 158 20 139 0 140 0 122 -20z m-2725 -347 c162 -196 296 -361 298 -367 2 -8
-149 -25 -465 -54 -257 -24 -478 -43 -490 -42 -21 0 -21 0 -6 68 24 111 88
292 141 403 67 140 200 350 220 349 4 -1 140 -161 302 -357z m448 345 c8 -8
12 -64 12 -187 0 -173 0 -174 -20 -156 -18 17 -20 31 -20 187 0 92 4 168 8
168 4 0 13 -5 20 -12z m2423 -95 c80 -122 173 -307 217 -433 37 -107 77 -269
68 -277 -8 -8 -958 77 -968 86 -7 7 590 731 603 731 5 0 40 -48 80 -107z m658
81 c6 -6 7 -6 -148 -73 -111 -48 -146 -59 -152 -49 -5 7 -7 17 -6 22 2 5 57
33 123 62 88 39 127 51 149 47 17 -3 32 -7 34 -9z m-4467 -23 c34 -16 94 -43
131 -60 61 -27 67 -33 58 -50 -10 -18 -19 -16 -167 52 -115 53 -151 73 -137
78 32 13 49 10 115 -20z m2392 -192 c-157 -157 -190 -186 -192 -168 -5 32 358
396 371 373 7 -13 -30 -56 -179 -205z m-2762 138 c70 -93 156 -240 205 -350
48 -110 110 -304 115 -363 l3 -38 -285 -27 c-157 -15 -294 -28 -306 -28 -19
-1 -20 2 -12 77 5 42 23 145 39 227 39 193 162 566 187 565 4 0 28 -29 54 -63z
m355 -13 c92 -42 171 -80 176 -83 4 -4 1 -14 -5 -23 -12 -14 -35 -6 -212 75
-197 91 -209 100 -139 106 7 1 88 -33 180 -75z m4597 68 c3 -5 -81 -46 -186
-91 -148 -64 -193 -79 -199 -69 -5 7 -7 17 -6 21 1 5 74 40 162 78 148 63 216
81 229 61z m287 -211 c22 -64 55 -177 74 -251 32 -132 73 -385 64 -395 -8 -7
-583 47 -593 56 -24 22 66 303 150 472 62 122 83 157 163 267 l55 75 23 -54
c13 -30 42 -106 64 -170z m-3411 7 c0 -159 -2 -179 -15 -168 -12 10 -15 45
-15 192 0 159 2 179 15 168 12 -10 15 -45 15 -192z m2155 182 c-17 -18 -31
-20 -163 -20 -144 0 -145 0 -127 20 17 18 31 20 163 20 144 0 145 0 127 -20z
m-3695 -91 c121 -56 220 -104 220 -108 0 -3 -4 -12 -9 -19 -6 -11 -55 8 -222
84 -205 93 -249 117 -249 136 0 21 55 1 260 -93z m4781 87 c-7 -8 -114 -58
-238 -111 -177 -76 -228 -94 -234 -83 -5 7 -9 16 -9 19 0 4 93 47 208 97 137
60 220 91 246 91 32 1 36 -1 27 -13z m-5406 -73 c83 -30 153 -58 157 -61 4 -4
-6 -51 -23 -105 -25 -80 -33 -97 -47 -93 -9 3 -87 24 -172 47 -85 22 -158 44
-162 47 -3 4 10 58 30 120 29 90 39 111 51 106 9 -3 84 -31 166 -61z m5987
-55 c26 -80 33 -115 25 -119 -35 -18 -339 -91 -346 -83 -10 10 -64 184 -59
189 4 4 330 124 339 124 3 1 22 -50 41 -111z m-3752 -116 c0 -184 0 -185 -20
-167 -19 17 -20 31 -20 203 0 184 0 185 20 167 19 -17 20 -31 20 -203z m863
-14 c-156 -156 -189 -185 -191 -167 -3 17 38 64 185 211 156 156 189 185 191
167 3 -17 -38 -64 -185 -211z m1167 197 c-10 -12 -41 -15 -162 -15 -133 0
-149 2 -138 15 10 12 41 15 162 15 133 0 149 -2 138 -15z m1078 -27 c-20 -26
-61 -48 -194 -106 -163 -70 -194 -78 -194 -49 0 11 375 184 404 186 5 1 -3
-14 -16 -31z m-4675 -93 c136 -62 164 -83 136 -100 -5 -4 -85 28 -177 70 -139
63 -171 82 -190 111 l-22 34 52 -24 c29 -13 119 -54 201 -91z m1627 -118 c0
-189 0 -190 -20 -172 -19 17 -20 31 -20 208 0 189 0 190 20 172 19 -17 20 -31
20 -208z m808 -44 c-160 -160 -194 -190 -196 -172 -3 17 39 65 190 216 160
160 194 190 196 172 3 -17 -39 -65 -190 -216z m1107 217 c-17 -18 -31 -20
-173 -20 -154 0 -155 0 -137 20 17 18 31 20 173 20 154 0 155 0 137 -20z
m-1855 -228 c0 -194 0 -195 -20 -177 -19 17 -20 31 -20 213 0 194 0 195 20
177 19 -17 20 -31 20 -213z m2923 161 c-13 -19 -62 -46 -153 -85 -73 -32 -134
-57 -136 -55 -1 1 -4 10 -6 21 -2 15 24 30 152 86 85 37 157 66 159 64 3 -3
-4 -17 -16 -31z m-1113 7 c-10 -19 -21 -20 -177 -20 -165 0 -166 0 -148 20 17
18 31 20 177 20 156 0 158 0 148 -20z m-3529 -56 c175 -80 161 -71 149 -94 -9
-18 -18 -15 -137 40 -96 45 -131 66 -146 89 -10 17 -17 31 -14 31 3 0 69 -30
148 -66z m1779 -167 c0 -199 0 -200 -20 -182 -19 17 -20 31 -20 218 0 199 0
200 20 182 19 -17 20 -31 20 -218z m890 210 c0 -26 -58 -92 -229 -262 -158
-157 -171 -168 -171 -140 0 25 29 59 192 222 106 106 196 193 200 193 5 0 8
-6 8 -13z m810 -47 c-10 -19 -21 -20 -182 -20 -170 0 -171 0 -153 20 17 18 31
20 182 20 161 0 164 0 153 -20z m-1640 -234 c0 -166 -2 -187 -15 -176 -12 10
-15 47 -15 214 1 179 2 198 15 176 11 -19 14 -69 15 -214z m2756 195 c-12 -22
-37 -38 -111 -70 -53 -22 -101 -41 -106 -41 -6 0 -9 9 -7 21 2 16 29 32 113
69 61 27 113 49 118 49 4 1 1 -12 -7 -28z m-5240 -62 c44 -11 85 -24 91 -27
16 -10 -29 -196 -49 -200 -17 -3 -337 53 -344 61 -6 5 17 125 36 199 l10 36
88 -24 c48 -14 123 -34 168 -45z m707 2 c62 -28 82 -51 58 -65 -5 -3 -49 13
-99 35 -62 29 -93 49 -101 66 -6 13 -11 26 -11 28 0 4 36 -10 153 -64z m3367
39 c-10 -19 -21 -20 -187 -20 -175 0 -176 0 -158 20 17 18 31 20 187 20 166 0
169 0 158 -20z m1979 -17 c19 -77 43 -194 40 -197 -6 -5 -361 -67 -363 -64 -4
7 -46 202 -43 203 3 3 340 93 349 94 4 1 12 -16 17 -36z m-2823 -50 c-15 -30
-80 -103 -170 -193 -123 -122 -146 -141 -146 -120 0 19 41 66 167 192 92 93
169 168 171 168 1 0 -9 -21 -22 -47z m1967 -4 c-13 -22 -37 -39 -85 -59 -68
-29 -78 -29 -78 0 0 10 28 28 83 52 45 20 86 36 90 37 5 1 1 -13 -10 -30z
m-1175 9 c-4 -10 -52 -14 -188 -16 -163 -2 -181 -1 -170 13 10 12 43 15 187
15 135 0 174 -3 171 -12z m-3268 -89 c0 -28 -10 -28 -72 0 -52 24 -86 56 -88
83 0 3 36 -10 80 -30 50 -23 80 -43 80 -53z m1790 -118 c0 -135 -2 -152 -15
-141 -12 10 -15 43 -15 179 1 149 2 163 15 141 11 -19 14 -64 15 -179z m1430
151 c0 -27 -30 -32 -209 -32 -183 0 -184 0 -166 20 17 19 31 20 197 20 98 0
178 -4 178 -8z m1189 -45 c-7 -15 -28 -32 -51 -41 -51 -21 -60 -20 -56 5 2 15
19 28 58 44 30 13 56 22 58 20 1 -1 -3 -14 -9 -28z m-4475 -17 c32 -15 46 -27
46 -40 0 -11 -4 -20 -9 -20 -18 0 -81 31 -81 39 0 5 -3 16 -6 25 -8 20 -6 20
50 -4z m3236 2 c0 -27 -30 -32 -214 -32 -188 0 -189 0 -171 20 17 19 31 20
202 20 100 0 183 -4 183 -8z m-1310 -201 c0 -113 0 -114 -20 -96 -18 16 -20
30 -19 154 l1 136 19 -40 c15 -32 19 -63 19 -154z m535 142 c-9 -22 -62 -84
-123 -146 -91 -91 -108 -104 -110 -86 -3 17 25 51 119 145 68 68 125 124 126
124 2 0 -4 -17 -12 -37z m1984 -13 c-6 -16 -15 -30 -19 -30 -5 0 -15 -3 -23
-6 -9 -3 -16 3 -20 16 -4 16 2 24 26 35 45 19 47 18 36 -15z m-1259 12 c0 -28
-30 -32 -219 -32 -193 0 -194 0 -176 20 17 19 31 20 207 20 103 0 188 -4 188
-8z m-3995 -48 c88 -14 162 -28 164 -30 2 -2 -2 -48 -9 -104 l-12 -100 -37 0
c-63 1 -321 27 -328 33 -5 6 12 168 24 215 3 15 11 21 22 18 9 -2 88 -17 176
-32z m819 27 c18 -8 23 -15 19 -30 -3 -12 -9 -21 -13 -21 -14 0 -40 30 -40 46
0 17 1 17 34 5z m5409 -33 c12 -64 28 -200 25 -203 -4 -3 -361 -35 -364 -32
-3 3 -31 202 -29 205 3 4 315 60 341 61 17 1 23 -6 27 -31z m-2283 -6 c0 -28
-30 -32 -224 -32 -198 0 -199 0 -181 20 17 19 31 20 212 20 106 0 193 -4 193
-8z m-1150 -171 c0 -83 0 -84 -20 -66 -18 16 -20 30 -19 124 l1 106 19 -40
c13 -29 19 -63 19 -124z m2436 143 c-3 -9 -6 -21 -6 -27 0 -16 -20 14 -20 31
0 6 7 12 16 12 11 0 14 -5 10 -16z m-4406 -32 c0 -15 -2 -15 -10 -2 -13 20
-13 33 0 25 6 -3 10 -14 10 -23z m3030 -17 c-19 -11 -68 -14 -209 -15 -162 0
-182 2 -171 15 10 12 46 15 209 15 175 -1 193 -2 171 -15z m-674 -42 c-13 -27
-52 -75 -85 -108 -55 -54 -61 -57 -61 -35 0 17 24 49 82 107 46 46 84 83 85
83 2 0 -8 -21 -21 -47z m-767 -361 c-31 -5 -408 369 -381 379 13 5 63 -38 210
-184 159 -159 189 -193 171 -195z m-271 374 c15 -8 108 -96 207 -195 151 -152
176 -181 155 -181 -19 0 -71 46 -220 195 -182 182 -209 216 -142 181z m3864
-178 l2086 -193 -1244 -3 c-684 -1 -1804 -1 -2488 0 l-1243 3 396 192 c218
106 398 193 401 193 3 1 944 -86 2092 -192z m-3847 -8 c158 -158 186 -190 165
-190 -19 0 -69 44 -207 182 -101 101 -183 186 -183 190 0 32 61 -18 225 -182z
m-75 -5 c171 -171 183 -185 155 -185 -26 0 -57 26 -208 178 -97 97 -177 181
-177 185 0 4 10 7 23 7 16 0 76 -54 207 -185z m-175 -5 c151 -151 176 -180
155 -180 -19 0 -67 41 -199 174 -158 159 -175 180 -141 185 3 1 86 -80 185
-179z m90 0 c151 -151 176 -180 155 -180 -19 0 -68 43 -205 180 -151 151 -176
180 -155 180 19 0 68 -43 205 -180z m1735 165 c-19 -11 -64 -14 -179 -15 -135
0 -152 2 -141 15 10 12 43 15 179 15 149 -1 163 -2 141 -15z m-1910 -170 c146
-146 171 -175 150 -175 -19 0 -66 41 -192 167 -93 92 -168 171 -168 175 0 31
59 -16 210 -167z m-75 -5 c157 -157 168 -170 140 -170 -25 0 -55 25 -192 162
-90 90 -163 166 -163 170 0 5 10 8 23 8 16 0 72 -50 192 -170z m1105 51 c0
-53 0 -54 -20 -36 -17 15 -20 30 -20 89 l1 71 19 -35 c12 -22 19 -55 20 -89z
m-1280 -56 c139 -139 161 -165 140 -165 -19 0 -64 38 -184 159 -145 145 -160
165 -126 170 3 1 79 -73 170 -164z m90 0 c139 -139 161 -165 140 -165 -19 0
-65 40 -190 165 -139 139 -161 165 -140 165 19 0 65 -40 190 -165z m628 141
c29 -15 102 -79 187 -165 131 -132 138 -141 110 -141 -26 0 -55 25 -195 165
-91 91 -161 165 -157 165 4 0 29 -11 55 -24z m-803 -146 c134 -134 156 -160
135 -160 -19 0 -63 38 -177 152 -84 84 -153 156 -153 160 0 31 57 -14 195
-152z m-75 -5 c144 -144 153 -155 125 -155 -25 0 -53 24 -177 147 -82 81 -148
151 -148 155 0 5 10 8 23 8 15 0 68 -46 177 -155z m-175 -5 c127 -127 146
-150 125 -150 -19 0 -61 35 -169 144 -131 131 -144 150 -111 155 3 1 73 -66
155 -149z m90 0 c127 -127 146 -150 125 -150 -19 0 -62 37 -175 150 -127 127
-146 150 -125 150 19 0 62 -37 175 -150z m2270 130 c-31 -14 -65 -19 -154 -19
-113 -1 -114 -1 -96 19 16 18 30 20 154 19 l136 0 -40 -19z m-2445 -135 c123
-123 141 -145 120 -145 -19 0 -61 36 -170 145 -123 123 -141 145 -120 145 19
0 61 -36 170 -145z m-75 -5 c131 -131 138 -140 110 -140 -26 0 -52 22 -170
140 -131 131 -138 140 -110 140 26 0 52 -22 170 -140z m-175 -5 c115 -115 131
-135 110 -135 -19 0 -57 32 -153 128 -116 117 -135 142 -103 142 6 0 72 -61
146 -135z m90 0 c115 -115 131 -135 110 -135 -19 0 -59 34 -160 135 -115 115
-131 135 -110 135 19 0 59 -34 160 -135z m-175 -5 c110 -111 126 -130 105
-130 -19 0 -58 33 -155 130 -110 111 -126 130 -105 130 19 0 58 -33 155 -130z
m-912 100 c4 -4 -25 -10 -65 -13 -77 -7 -83 -5 -75 16 4 10 21 12 68 9 35 -2
68 -8 72 -12z m837 -105 c118 -118 123 -125 95 -125 -25 0 -51 20 -155 125
-118 118 -123 125 -95 125 25 0 51 -20 155 -125z m1855 -24 c86 -88 96 -101
75 -101 -19 0 -57 32 -150 126 -120 121 -123 125 -75 101 30 -16 89 -65 150
-126z m510 112 c-9 -20 -28 -53 -43 -72 l-27 -36 -3 29 c-3 23 5 38 39 72 24
24 45 44 46 44 2 0 -4 -17 -12 -37z m-2540 -93 c102 -103 116 -120 95 -120
-19 0 -54 29 -138 113 -103 103 -119 127 -88 127 6 0 65 -54 131 -120z m90 0
c102 -103 116 -120 95 -120 -19 0 -56 31 -145 120 -102 103 -116 120 -95 120
19 0 56 -31 145 -120z m2815 100 c-26 -14 -56 -19 -119 -20 -83 0 -84 0 -66
20 16 18 30 20 119 20 l101 -1 -35 -19z m2784 4 c5 -14 1 -16 -25 -10 -17 3
-52 7 -78 7 l-46 2 40 7 c72 13 102 11 109 -6z m-5774 -109 c98 -99 111 -115
90 -115 -19 0 -55 30 -140 115 -98 99 -111 115 -90 115 19 0 55 -30 140 -115z
m-75 -5 c104 -105 108 -110 80 -110 -25 0 -49 19 -140 110 -104 105 -108 110
-80 110 25 0 49 -19 140 -110z m-175 -5 c90 -91 101 -105 80 -105 -19 0 -51
26 -123 98 -89 90 -104 112 -73 112 6 0 58 -47 116 -105z m90 0 c90 -91 101
-105 80 -105 -19 0 -53 28 -130 105 -90 91 -101 105 -80 105 19 0 53 -28 130
-105z m-175 -5 c86 -87 96 -100 75 -100 -19 0 -52 27 -125 100 -86 87 -96 100
-75 100 19 0 52 -27 125 -100z m2765 31 c0 -20 -2 -21 -15 -11 -8 7 -15 28
-15 49 l1 36 14 -25 c8 -14 14 -36 15 -49z m-2861 -129 c-31 -5 -208 169 -182
179 14 5 41 -16 111 -85 79 -78 89 -91 71 -94z m21 93 c91 -91 93 -95 65 -95
-25 0 -47 17 -125 95 -91 91 -93 95 -65 95 25 0 47 -17 125 -95z m-175 -5 c78
-78 86 -90 65 -90 -17 0 -49 24 -107 82 -46 46 -83 86 -83 90 0 27 47 -4 125
-82z m3475 85 c0 -14 -66 -35 -111 -35 -51 0 -52 0 -34 20 14 16 31 20 82 20
34 0 63 -2 63 -5z m-3560 -90 c74 -75 82 -85 60 -85 -19 0 -49 24 -110 85 -74
75 -82 85 -60 85 19 0 49 -24 110 -85z m2915 -24 c54 -56 57 -61 34 -61 -18 0
-48 24 -109 86 l-85 86 50 -25 c28 -14 77 -53 110 -86z m-3026 -59 c-31 -5
-178 139 -152 149 13 5 38 -13 96 -70 67 -66 75 -76 56 -79z m36 78 c77 -78
79 -80 50 -80 -25 0 -46 15 -110 80 -77 78 -79 80 -50 80 25 0 46 -15 110 -80z
m-175 -5 c66 -66 72 -75 50 -75 -17 0 -46 21 -92 67 -38 37 -68 71 -68 75 0
26 45 -2 110 -67z m-85 -5 c62 -63 67 -70 44 -70 -17 0 -45 21 -94 70 -62 63
-67 70 -44 70 17 0 45 -21 94 -70z m-165 -5 c58 -59 62 -65 39 -65 -17 0 -43
18 -83 59 -53 54 -58 65 -26 70 3 1 35 -28 70 -64z m90 0 c64 -65 64 -65 34
-65 -23 0 -43 14 -94 65 -64 65 -64 65 -34 65 23 0 43 -14 94 -65z m-175 -5
c54 -55 57 -60 34 -60 -17 0 -43 18 -84 60 -54 55 -57 60 -34 60 17 0 43 -18
84 -60z m-85 -5 c50 -51 52 -55 29 -55 -17 0 -42 17 -79 55 -50 51 -52 55 -29
55 17 0 42 -17 79 -55z m4070 40 c-14 -8 -33 -14 -44 -15 -15 0 -16 3 -6 15 7
8 27 15 44 15 l31 -1 -25 -14z m-4225 -54 l39 -41 -30 0 c-39 0 -129 85 -98
92 26 6 42 -4 89 -51z m70 9 c46 -47 48 -50 24 -50 -17 0 -41 16 -74 50 -46
47 -48 50 -24 50 17 0 41 -16 74 -50z m-165 -5 c42 -43 43 -45 19 -45 -16 0
-40 15 -69 45 -42 43 -43 45 -19 45 16 0 40 -15 69 -45z m-85 -5 c38 -39 38
-40 14 -40 -16 0 -39 14 -64 40 -38 39 -38 40 -14 40 16 0 39 -14 64 -40z
m4054 -24 c12 -14 10 -16 -11 -16 -15 0 -39 15 -63 41 l-40 41 51 -25 c27 -14
56 -33 63 -41z m-4210 10 l24 -26 -29 0 c-39 0 -98 55 -67 62 23 6 42 -4 72
-36z m71 9 c34 -35 34 -35 9 -35 -16 0 -38 13 -59 35 -34 35 -34 35 -9 35 16
0 38 -13 59 -35z m-165 -5 l29 -30 -25 0 c-15 0 -37 12 -54 30 l-29 30 25 0
c15 0 37 -12 54 -30z m-85 -5 l23 -25 -25 0 c-13 0 -35 11 -48 25 l-23 25 25
0 c13 0 35 -11 48 -25z m-169 -5 l24 -19 -31 -1 c-34 0 -65 24 -42 33 21 9 25
8 49 -13z m84 0 c18 -19 17 -20 -7 -20 -14 0 -33 9 -43 20 -18 19 -17 20 7 20
14 0 33 -9 43 -20z m-165 -5 c11 -13 9 -15 -13 -15 -13 0 -30 7 -37 15 -11 13
-9 15 13 15 13 0 30 -7 37 -15z m-85 -5 c3 -6 -5 -10 -19 -10 -14 0 -28 5 -31
10 -3 6 5 10 19 10 14 0 28 -4 31 -10z m-92 -7 c-7 -2 -21 -2 -30 0 -10 3 -4
5 12 5 17 0 24 -2 18 -5z m4832 -70 c-27 -14 -210 -104 -405 -199 l-356 -172
-2089 194 c-1150 106 -2099 195 -2110 197 -11 3 1112 5 2495 5 l2515 1 -50
-26z m365 -19 l45 -46 -50 25 c-27 14 -59 34 -69 46 -19 21 -19 21 5 21 16 0
40 -16 69 -46z m130 -39 c83 -84 84 -85 44 -69 -24 9 -70 45 -110 85 -61 62
-66 69 -44 69 19 0 49 -24 110 -85z m135 -46 c124 -125 128 -130 80 -106 -31
16 -91 66 -155 131 -90 92 -101 106 -80 106 19 0 58 -33 155 -131z m130 -39
c159 -159 167 -169 125 -153 -33 13 -87 59 -200 170 -145 142 -153 153 -125
153 26 0 55 -25 200 -170z m110 -30 c110 -110 194 -200 187 -200 -31 0 -78 40
-252 214 -155 156 -181 186 -160 186 19 0 72 -47 225 -200z m85 5 c163 -163
191 -195 170 -195 -19 0 -71 46 -220 195 -163 163 -191 195 -170 195 19 0 71
-46 220 -195z m85 5 c159 -159 186 -190 165 -190 -19 0 -70 45 -215 190 -159
159 -186 190 -165 190 19 0 70 -45 215 -190z m84 6 c141 -141 179 -185 166
-190 -9 -3 -24 -2 -33 3 -9 6 -98 91 -197 190 -167 168 -178 181 -150 181 26
0 57 -27 214 -184z m81 -1 c155 -155 181 -185 160 -185 -19 0 -69 44 -210 185
-155 155 -181 185 -160 185 19 0 69 -44 210 -185z m85 5 c151 -151 176 -180
155 -180 -19 0 -68 43 -205 180 -151 151 -176 180 -155 180 19 0 68 -43 205
-180z m85 5 c147 -147 171 -175 150 -175 -19 0 -67 42 -200 175 -147 147 -171
175 -150 175 19 0 67 -42 200 -175z m84 6 c130 -130 164 -170 151 -175 -9 -3
-24 -2 -33 3 -9 6 -91 84 -182 175 -153 154 -163 166 -135 166 26 0 56 -25
199 -169z m81 -1 c143 -143 166 -170 145 -170 -19 0 -66 41 -195 170 -143 143
-166 170 -145 170 19 0 66 -41 195 -170z m85 5 c139 -139 161 -165 140 -165
-19 0 -65 40 -190 165 -139 139 -161 165 -140 165 19 0 65 -40 190 -165z m85
5 c135 -135 156 -160 135 -160 -19 0 -64 39 -185 160 -135 135 -156 160 -135
160 19 0 64 -39 185 -160z m84 6 c142 -142 168 -179 113 -162 -9 3 -87 76
-172 161 -144 144 -153 155 -125 155 26 0 54 -24 184 -154z m81 -1 c131 -131
151 -155 130 -155 -19 0 -63 38 -180 155 -131 131 -151 155 -130 155 19 0 63
-38 180 -155z m85 5 c127 -127 146 -150 125 -150 -19 0 -62 37 -175 150 -127
127 -146 150 -125 150 19 0 62 -37 175 -150z m85 5 c123 -123 141 -145 120
-145 -19 0 -61 36 -170 145 -123 123 -141 145 -120 145 19 0 61 -36 170 -145z
m84 6 c128 -128 152 -164 98 -147 -9 3 -80 69 -157 146 -131 131 -138 140
-110 140 26 0 52 -22 169 -139z m81 -1 c119 -119 136 -140 115 -140 -19 0 -60
35 -165 140 -119 119 -136 140 -115 140 19 0 60 -35 165 -140z m85 5 c115
-115 131 -135 110 -135 -19 0 -59 34 -160 135 -115 115 -131 135 -110 135 19
0 59 -34 160 -135z m85 5 c110 -111 126 -130 105 -130 -19 0 -58 33 -155 130
-110 111 -126 130 -105 130 19 0 58 -33 155 -130z m83 7 c67 -68 120 -126 116
-130 -19 -19 -49 3 -169 123 -122 122 -128 130 -100 130 25 0 51 -20 153 -123z
m82 -2 c106 -107 121 -125 100 -125 -19 0 -57 32 -150 125 -106 107 -121 125
-100 125 19 0 57 -32 150 -125z m85 5 c102 -103 116 -120 95 -120 -19 0 -56
31 -145 120 -102 103 -116 120 -95 120 19 0 56 -31 145 -120z m84 6 c94 -94
110 -114 93 -118 -15 -4 -47 22 -138 113 -102 102 -115 119 -94 119 19 0 55
-29 139 -114z m83 7 c60 -59 108 -111 108 -115 0 -5 -10 -8 -23 -8 -15 0 -58
36 -137 115 -108 108 -113 115 -85 115 24 0 49 -19 137 -107z m83 -3 c94 -95
106 -110 85 -110 -19 0 -54 29 -135 110 -94 95 -106 110 -85 110 19 0 54 -29
135 -110z m85 5 c90 -91 101 -105 80 -105 -19 0 -53 28 -130 105 -90 91 -101
105 -80 105 19 0 53 -28 130 -105z m84 6 c82 -82 95 -99 78 -103 -15 -4 -44
19 -123 98 -90 90 -100 104 -79 104 19 0 52 -26 124 -99z m83 7 c51 -51 93
-96 93 -100 0 -5 -10 -8 -23 -8 -15 0 -54 32 -122 100 -95 95 -98 100 -70 100
24 0 47 -18 122 -92z m83 -3 c82 -83 91 -95 70 -95 -19 0 -51 26 -120 95 -82
83 -91 95 -70 95 19 0 51 -26 120 -95z m85 5 c78 -79 86 -90 65 -90 -19 0 -50
25 -115 90 -78 79 -86 90 -65 90 19 0 50 -25 115 -90z m84 6 c69 -69 80 -84
65 -90 -14 -5 -40 15 -108 84 -80 79 -88 90 -66 90 19 0 48 -23 109 -84z m83
7 c43 -43 78 -81 78 -85 0 -5 -10 -8 -23 -8 -15 0 -50 28 -107 85 -81 82 -83
85 -55 85 23 0 46 -16 107 -77z m83 -3 c70 -71 77 -80 55 -80 -18 0 -48 23
-105 80 -70 71 -77 80 -55 80 18 0 48 -23 105 -80z m85 5 c66 -67 72 -75 49
-75 -17 0 -46 22 -99 75 -66 67 -72 75 -49 75 17 0 46 -22 99 -75z m84 6 c57
-57 65 -69 50 -75 -14 -5 -37 12 -93 69 -68 67 -73 75 -51 75 18 0 45 -20 94
-69z m83 7 c35 -34 63 -66 63 -70 0 -4 -10 -8 -23 -8 -15 0 -47 24 -92 70 -68
68 -69 70 -40 70 23 0 44 -14 92 -62z m83 -3 c58 -59 62 -65 39 -65 -17 0 -44
20 -89 65 -58 59 -62 65 -39 65 17 0 44 -20 89 -65z m85 5 c54 -55 57 -60 34
-60 -17 0 -43 18 -84 60 -54 55 -57 60 -34 60 17 0 43 -18 84 -60z m84 6 c45
-45 50 -54 35 -60 -13 -5 -34 9 -78 54 -56 55 -59 60 -36 60 18 0 42 -17 79
-54z m91 -1 c50 -51 52 -55 29 -55 -17 0 -42 17 -79 55 -50 51 -52 55 -29 55
17 0 42 -17 79 -55z m77 13 c49 -48 52 -58 20 -58 -14 0 -41 19 -72 50 l-49
50 29 0 c21 0 41 -12 72 -42z m83 -3 c42 -43 43 -45 19 -45 -16 0 -40 15 -69
45 -42 43 -43 45 -19 45 16 0 40 -15 69 -45z m85 5 c33 -34 36 -40 21 -46 -13
-5 -31 6 -64 40 -44 44 -45 46 -21 46 16 0 39 -14 64 -40z m90 0 c38 -39 38
-40 14 -40 -16 0 -39 14 -64 40 -38 39 -38 40 -14 40 16 0 39 -14 64 -40z m85
5 l34 -35 -30 0 c-21 0 -40 10 -64 35 l-34 35 30 0 c21 0 40 -10 64 -35z m75
5 l29 -30 -25 0 c-15 0 -37 12 -54 30 l-29 30 25 0 c15 0 37 -12 54 -30z m85
5 c21 -22 21 -25 6 -31 -12 -5 -28 3 -49 25 l-32 31 26 0 c14 0 36 -11 49 -25z
m90 0 l23 -25 -25 0 c-13 0 -35 11 -48 25 l-23 25 25 0 c13 0 35 -11 48 -25z
m85 5 c18 -20 17 -20 -12 -20 -17 0 -38 8 -48 20 -18 20 -17 20 12 20 17 0 38
-8 48 -20z m75 5 c11 -13 9 -15 -13 -15 -13 0 -30 7 -37 15 -11 13 -9 15 13
15 13 0 30 -7 37 -15z m85 5 c11 -18 -26 -23 -43 -6 -15 15 -14 16 10 16 15 0
30 -5 33 -10z m90 0 c3 -6 -5 -10 -19 -10 -14 0 -28 5 -31 10 -3 6 5 10 19 10
14 0 28 -4 31 -10z m68 3 c-7 -2 -21 -2 -30 0 -10 3 -4 5 12 5 17 0 24 -2 18
-5z m-4561 -250 l367 -178 963 -1161 c1097 -1322 992 -1194 987 -1194 -2 0
-618 614 -1369 1365 -751 751 -1354 1362 -1340 1356 14 -5 190 -90 392 -188z
m-667 157 c-12 -13 -30 -20 -54 -19 l-36 1 40 19 c54 25 74 25 50 -1z m373
-387 l190 -393 -89 -957 c-49 -527 -96 -1032 -104 -1123 -58 -645 -196 -2117
-199 -2125 -3 -5 -5 1119 -5 2500 -1 1424 3 2505 8 2500 4 -6 94 -187 199
-402z m-435 120 c-74 -153 -159 -328 -188 -389 l-52 -111 -1119 -928 c-615
-511 -1146 -951 -1179 -978 -33 -28 554 565 1305 1316 751 752 1366 1367 1367
1367 1 0 -59 -125 -134 -277z m347 188 l-1 -36 -19 35 c-11 19 -19 44 -20 54
0 18 1 18 20 1 13 -12 20 -30 20 -54z m-196 -32 c-21 -21 -39 -37 -42 -35 -6
6 28 69 52 94 l21 24 3 -22 c3 -15 -9 -35 -34 -61z m-149 51 c-15 -16 -30 -20
-84 -19 l-66 1 40 19 c22 10 60 19 84 19 43 0 44 0 26 -20z m404 -114 l-1 -71
-19 40 c-10 22 -19 62 -19 89 0 48 0 49 20 31 17 -15 20 -30 19 -89z m-469 49
c-10 -11 -35 -15 -109 -15 -88 1 -94 2 -71 15 16 9 55 14 109 15 73 0 82 -2
71 -15z m165 -124 l-87 -86 27 55 c15 30 52 81 83 113 56 57 57 57 60 31 3
-23 -11 -41 -83 -113z m-3056 125 c-10 -8 -89 -13 -89 -5 0 5 21 9 47 9 25 0
44 -2 42 -4z m6404 -12 c-3 -8 -12 -13 -20 -10 -8 3 -38 7 -66 7 -45 1 -48 2
-22 9 17 4 49 8 72 9 35 1 41 -2 36 -15z m-2983 -128 c-1 -93 -2 -99 -15 -76
-9 16 -14 56 -15 114 0 77 2 87 15 76 12 -10 15 -36 15 -114z m-3121 13 c7
-56 11 -102 9 -104 -9 -8 -354 -62 -359 -57 -10 10 -34 221 -26 229 7 7 226
29 313 32 l50 1 13 -101z m358 65 c153 -14 279 -27 281 -28 6 -6 -28 -139 -59
-236 -18 -52 -56 -147 -86 -210 -53 -112 -181 -317 -221 -353 -19 -18 -20 -17
-52 60 -88 210 -162 494 -188 721 l-8 72 28 0 c15 0 153 -12 305 -26z m5333 6
c0 -39 -31 -226 -56 -340 -26 -118 -105 -367 -144 -453 -21 -48 -22 -48 -42
-30 -38 34 -167 238 -217 343 -53 111 -108 269 -134 383 l-15 67 26 1 c15 0
131 11 257 23 306 31 325 32 325 6z m258 5 c79 -7 146 -16 149 -18 4 -5 -24
-227 -29 -233 -3 -2 -333 54 -354 61 -8 2 -9 20 -4 57 5 29 11 74 15 101 6 46
7 47 43 47 20 0 102 -7 180 -15z m-3424 -15 c-19 -19 -31 -20 -150 -18 -127 3
-129 3 -99 20 24 14 56 17 150 18 l119 0 -20 -20z m191 -179 c-116 -115 -125
-122 -105 -81 12 25 67 91 123 148 87 87 103 99 105 81 3 -17 -26 -51 -123
-148z m475 0 l-1 -136 -19 35 c-16 29 -19 56 -20 154 0 118 0 119 20 101 18
-16 20 -30 20 -154z m-2299 133 c10 -3 20 -26 28 -70 14 -80 77 -274 121 -375
45 -104 130 -253 195 -344 l56 -77 -56 -68 c-76 -93 -78 -94 -102 -67 -52 56
-179 260 -243 390 -93 191 -162 399 -195 591 l-6 38 93 -7 c51 -3 100 -8 109
-11z m4132 -56 c-59 -315 -202 -640 -394 -897 -29 -39 -55 -71 -59 -71 -3 0
-34 34 -69 77 -61 72 -63 78 -50 99 8 12 39 60 70 106 121 179 216 392 270
608 17 69 33 127 36 130 5 6 99 16 164 19 l46 1 -14 -72z m-2558 42 c-17 -19
-31 -20 -184 -20 l-166 1 35 19 c30 16 57 19 184 20 148 0 149 0 131 -20z
m-980 -41 c242 -22 440 -41 442 -42 1 -1 -136 -168 -304 -370 -252 -304 -308
-366 -318 -355 -33 33 -130 191 -184 297 -69 137 -121 271 -151 396 -12 50
-24 98 -27 109 -5 17 -1 18 48 12 30 -3 252 -24 494 -47z m3295 39 c0 -29 -41
-180 -75 -277 -20 -57 -61 -154 -92 -215 -56 -113 -192 -329 -203 -324 -12 5
-612 730 -608 734 3 3 893 90 956 93 12 0 22 -5 22 -11z m-1530 -212 l-1 -171
-19 35 c-16 30 -19 57 -20 189 0 153 0 154 20 136 19 -17 20 -31 20 -189z
m-845 154 c-17 -19 -30 -20 -219 -19 l-201 0 40 19 c34 16 67 19 219 19 178 1
179 1 161 -19z m270 -189 c-146 -145 -164 -160 -145 -121 13 28 77 100 163
188 119 119 143 139 145 121 3 -17 -33 -59 -163 -188z m-2009 131 c-12 -11
-18 7 -10 30 l8 23 4 -23 c2 -13 1 -26 -2 -30z m2643 -186 l-1 -201 -19 40
c-16 35 -19 64 -19 219 0 178 0 179 20 161 19 -17 20 -30 19 -219z m1758 212
c-3 -8 -6 -5 -6 6 -1 11 2 17 5 13 3 -3 4 -12 1 -19z m-2722 -28 c-17 -19 -31
-20 -212 -20 -106 0 -193 4 -193 8 0 28 30 32 224 32 198 0 199 0 181 -20z
m2746 -38 c5 -14 8 -27 6 -29 -6 -6 -57 19 -57 28 0 42 35 43 51 1z m-2445
-211 c-161 -161 -196 -192 -196 -172 0 19 48 73 193 218 160 162 193 190 195
172 3 -17 -38 -64 -192 -218z m724 6 c0 -199 0 -200 -20 -182 -19 17 -20 31
-20 218 0 199 0 200 20 182 19 -17 20 -31 20 -218z m-2680 188 c0 -10 -60 -38
-67 -31 -2 2 1 15 6 29 15 39 60 40 61 2z m-667 8 c20 -73 37 -177 30 -183
-13 -13 -343 -98 -348 -89 -3 4 -16 57 -29 118 l-24 111 32 5 c17 3 90 16 161
29 162 30 172 30 178 9z m5870 -22 c87 -15 160 -31 163 -33 6 -6 -35 -200 -46
-219 -7 -10 -42 -4 -174 31 -92 24 -170 47 -175 50 -5 3 1 49 12 103 19 84 24
97 42 97 11 0 91 -13 178 -29z m-3613 4 c-10 -12 -46 -15 -201 -15 -173 0
-202 4 -182 23 3 4 94 7 201 7 172 0 193 -2 182 -15z m2794 -21 c29 -14 64
-59 53 -70 -1 -2 -26 8 -54 21 -43 19 -51 27 -46 44 6 25 4 25 47 5z m-1644
-211 c0 -173 -2 -194 -15 -183 -12 10 -15 46 -15 207 0 173 2 194 15 183 12
-10 15 -46 15 -207z m-2728 197 c0 -5 1 -15 2 -21 1 -9 -105 -62 -111 -55 -1
1 1 12 4 25 4 15 21 30 47 42 47 21 55 23 58 9z m1950 -233 c-170 -170 -190
-187 -195 -166 -5 20 21 51 186 217 177 178 192 191 195 166 3 -24 -21 -52
-186 -217z m-437 203 c-17 -19 -31 -20 -202 -20 -181 0 -184 0 -173 20 10 19
21 20 202 20 190 0 191 0 173 -20z m1285 -233 c0 -189 0 -190 -20 -172 -19 17
-20 31 -20 208 0 189 0 190 20 172 19 -17 20 -31 20 -208z m1590 193 c34 -17
61 -38 65 -51 4 -11 5 -22 3 -24 -1 -1 -37 14 -79 34 -57 27 -74 40 -71 54 5
23 13 22 82 -13z m-4366 -6 c4 -12 -14 -25 -80 -55 -48 -22 -88 -38 -90 -37
-2 2 4 16 14 32 10 17 39 37 72 52 66 28 76 29 84 8z m1431 -14 c-17 -19 -31
-20 -197 -20 -176 0 -179 0 -168 20 10 19 21 20 197 20 185 0 186 0 168 -20z
m498 -222 c-156 -156 -189 -185 -191 -167 -3 17 38 64 185 211 156 156 189
185 191 167 3 -17 -38 -64 -185 -211z m907 -6 c0 -184 0 -185 -20 -167 -19 17
-20 31 -20 203 0 184 0 185 20 167 19 -17 20 -31 20 -203z m1570 155 c37 -17
60 -34 68 -52 7 -15 11 -29 10 -30 -2 -1 -53 21 -115 50 -96 46 -111 56 -106
73 6 23 -5 26 143 -41z m-4388 33 c0 -5 1 -15 2 -21 1 -9 -223 -113 -230 -106
-2 1 2 14 9 27 9 17 42 38 107 67 104 46 109 48 112 33z m1353 -20 c-17 -19
-31 -20 -192 -20 -171 0 -174 0 -163 20 10 19 21 20 192 20 180 0 181 0 163
-20z m1525 -223 c0 -179 0 -180 -20 -162 -19 17 -20 31 -20 198 0 179 0 180
20 162 19 -17 20 -31 20 -198z m-3514 102 l32 -100 -22 -10 c-76 -33 -322
-116 -328 -111 -8 9 -68 198 -68 215 0 9 258 87 350 106 3 1 19 -44 36 -100z
m2552 -126 c-152 -152 -184 -180 -186 -162 -3 17 37 63 180 206 152 152 184
180 186 162 3 -17 -37 -63 -180 -206z m2460 164 c88 -40 117 -58 129 -80 14
-27 13 -28 -5 -23 -53 17 -277 127 -276 136 4 38 -10 41 152 -33z m-4353 6
c-6 -2 -75 -32 -155 -67 -80 -35 -146 -62 -148 -61 -1 1 2 14 9 28 9 20 42 39
148 85 131 57 136 58 146 39 6 -13 6 -22 0 -24z m5065 -3 c85 -23 158 -45 161
-49 11 -10 -60 -221 -74 -221 -17 0 -320 110 -331 120 -4 5 4 46 19 92 14 45
28 89 31 96 2 7 12 11 21 8 10 -3 88 -24 173 -46z m-3795 20 c-17 -19 -31 -20
-188 -20 -169 0 -170 0 -152 20 17 19 31 20 188 20 169 0 170 0 152 -20z
m1645 -218 c0 -174 0 -175 -20 -157 -19 17 -20 31 -20 193 0 174 0 175 20 157
19 -17 20 -31 20 -193z m1493 96 c93 -43 122 -61 137 -86 11 -18 18 -32 17
-32 -2 0 -73 32 -158 71 -85 39 -173 80 -197 90 -38 16 -42 21 -32 38 12 23
-11 30 233 -81z m-4379 66 c4 -9 5 -18 4 -20 -8 -7 -402 -174 -404 -171 -2 2
9 17 24 35 20 23 71 50 187 101 88 38 165 70 171 70 7 1 15 -6 18 -15z m1176
-9 c-10 -12 -43 -15 -177 -15 -146 0 -164 2 -153 15 10 12 43 15 177 15 146 0
164 -2 153 -15z m693 -207 c-148 -148 -179 -175 -181 -157 -3 17 36 62 175
201 148 148 179 175 181 157 3 -17 -36 -62 -175 -201z m1077 0 c0 -150 -2
-169 -15 -158 -12 10 -15 44 -15 182 0 150 2 169 15 158 12 -10 15 -44 15
-182z m1407 87 c212 -98 262 -128 230 -141 -10 -3 -103 34 -239 96 -123 56
-225 103 -227 105 -6 7 8 35 18 35 5 0 103 -43 218 -95z m-4328 66 c10 -17
-10 -27 -213 -115 -122 -53 -232 -96 -244 -96 -25 0 -28 12 -8 29 12 11 431
197 448 200 4 0 12 -7 17 -18z m1086 -11 c-17 -18 -31 -20 -178 -20 -159 0
-160 0 -142 20 17 18 31 20 178 20 159 0 160 0 142 -20z m762 -228 c-157 -157
-175 -172 -180 -151 -5 20 19 49 171 202 164 164 177 176 180 151 3 -24 -20
-51 -171 -202z m-207 -267 c24 -266 41 -487 37 -491 -9 -9 -175 33 -287 73
-52 18 -144 58 -205 87 -122 60 -328 192 -323 207 3 10 719 608 728 609 3 0
25 -218 50 -485z m1222 183 c200 -165 364 -304 366 -308 5 -12 -212 -148 -323
-203 -157 -78 -339 -141 -463 -162 l-44 -7 6 53 c7 57 86 907 86 921 0 4 2 8
5 8 3 0 168 -136 367 -302z m128 110 c0 -87 -4 -158 -8 -158 -27 0 -32 30 -32
189 0 163 0 164 20 146 18 -17 20 -31 20 -177z m1287 95 c106 -49 193 -91 193
-95 0 -5 -17 -8 -38 -8 -26 0 -89 24 -202 76 -91 41 -166 77 -168 78 -4 5 10
36 17 36 3 0 93 -39 198 -87z m-4248 34 c-2 -2 -79 -36 -172 -75 -146 -63
-172 -71 -204 -64 -36 7 -30 10 163 94 187 82 200 86 208 67 5 -10 7 -21 5
-22z m996 13 c-17 -18 -31 -20 -173 -20 -154 0 -155 0 -137 20 17 18 31 20
173 20 154 0 155 0 137 -20z m-1651 -114 c20 -49 35 -91 33 -92 -5 -6 -296
-142 -315 -148 -17 -6 -25 7 -61 93 -22 55 -41 106 -41 113 0 14 331 140 341
129 4 -3 23 -46 43 -95z m3676 -83 c0 -84 -4 -153 -8 -153 -27 0 -32 30 -32
184 0 158 0 159 20 141 18 -17 20 -31 20 -172z m1104 131 c56 -26 126 -58 156
-72 l55 -25 -35 -8 c-30 -7 -52 0 -167 53 -73 34 -133 62 -133 64 0 9 13 34
18 34 2 0 50 -21 106 -46z m763 -16 c92 -33 169 -62 171 -63 3 -3 -30 -89 -65
-167 l-25 -56 -42 18 c-22 10 -98 45 -168 78 l-126 60 41 96 c22 53 42 96 43
96 2 0 79 -28 171 -62z m-4855 11 c-4 -4 -62 -30 -129 -59 -105 -45 -128 -51
-160 -45 -33 6 -35 9 -18 16 11 5 81 36 155 68 121 52 136 57 147 42 6 -9 9
-19 5 -22z m1786 -176 c-144 -144 -174 -170 -176 -152 -3 17 35 61 170 196
144 144 174 170 176 152 3 -17 -35 -61 -170 -196z m-883 187 c-17 -18 -31 -20
-168 -20 -149 0 -150 0 -132 20 17 18 31 20 168 20 149 0 150 0 132 -20z
m2145 -192 c0 -81 -4 -148 -8 -148 -27 0 -32 30 -32 179 0 153 0 154 20 136
18 -17 20 -31 20 -167z m1032 116 c105 -46 120 -64 58 -64 -22 0 -181 67 -197
83 -10 10 7 39 20 34 6 -3 60 -26 119 -53z m-4049 5 c-5 -4 -46 -24 -92 -44
-65 -27 -91 -34 -118 -29 -19 4 -31 9 -28 12 3 3 54 27 113 52 95 42 108 46
120 32 6 -9 9 -19 5 -23z m812 11 c-17 -18 -31 -20 -163 -20 -144 0 -145 0
-127 20 17 18 31 20 163 20 144 0 145 0 127 -20z m948 -212 c-140 -140 -169
-165 -171 -147 -3 17 34 60 165 191 140 140 169 165 171 147 3 -17 -34 -60
-165 -191z m1317 25 c0 -78 -4 -143 -8 -143 -26 0 -32 30 -32 174 0 148 0 149
20 131 18 -16 20 -31 20 -162z m901 128 c82 -38 83 -39 57 -49 -23 -10 -38 -7
-95 19 -37 17 -69 32 -72 34 -3 4 18 35 24 35 2 0 40 -17 86 -39z m-3945 -10
c-3 -5 -31 -19 -61 -31 -44 -18 -63 -21 -88 -14 -31 10 -31 10 53 46 70 30 86
34 93 22 4 -8 6 -18 3 -23z m-575 8 c217 -22 408 -78 617 -182 68 -33 125 -64
128 -68 6 -10 -376 -471 -387 -467 -20 7 -151 178 -239 311 -80 120 -230 388
-230 411 0 7 -10 8 111 -5z m1289 -4 c-10 -12 -40 -15 -152 -15 -124 0 -139 2
-128 15 10 12 40 15 152 15 124 0 139 -2 128 -15z m3775 -40 c-78 -177 -283
-493 -413 -637 l-34 -38 -189 228 c-103 125 -187 232 -186 237 6 19 248 133
369 173 156 52 319 84 450 91 l28 1 -25 -55z m-1385 -137 c0 -107 -3 -139 -12
-136 -10 4 -14 45 -16 153 -2 132 -1 147 13 135 12 -10 15 -39 15 -152z m783
135 l52 -26 -28 -10 c-48 -16 -128 29 -100 56 10 11 21 8 76 -20z m-3843 -14
c0 -5 -17 -16 -37 -24 -31 -13 -43 -14 -63 -4 -25 12 -25 12 25 34 48 22 75
19 75 -6z m1688 -176 c-136 -136 -164 -160 -166 -142 -3 17 33 59 160 186 136
136 164 160 166 142 3 -17 -33 -59 -160 -186z m-1078 172 c-10 -12 -40 -15
-147 -15 -119 0 -134 2 -123 15 10 12 40 15 147 15 119 0 134 -2 123 -15z
m-1300 -95 c24 -49 42 -91 40 -94 -19 -18 -306 -176 -315 -172 -18 7 -109 196
-99 206 12 12 306 149 319 149 6 0 30 -40 55 -89z m5360 -1 c74 -35 137 -64
138 -65 4 -3 -83 -173 -101 -197 -11 -16 -27 -9 -167 72 -85 50 -155 94 -155
98 0 4 20 47 45 95 l44 86 31 -13 c16 -7 91 -41 165 -76z m-1550 -76 c0 -103
-3 -134 -12 -131 -10 3 -14 44 -16 148 -2 127 -1 142 13 130 12 -10 15 -38 15
-147z m674 137 c12 -12 -27 -30 -52 -23 -22 5 -29 23 -15 37 8 8 54 -1 67 -14z
m-3766 -2 c7 -7 12 -15 12 -19 0 -14 -31 -18 -56 -7 l-25 12 23 13 c29 16 31
16 46 1z m517 -28 c-16 -18 -31 -20 -142 -20 -67 0 -123 4 -123 8 0 26 30 32
154 32 128 0 129 0 111 -20z m1149 -191 c-148 -148 -173 -166 -174 -125 0 5
73 83 163 173 150 152 162 162 165 137 3 -23 -18 -49 -154 -185z m2024 183 c9
-6 5 -12 -13 -20 -35 -16 -37 -15 -23 8 14 22 17 23 36 12z m-528 -164 c0
-126 0 -128 -20 -118 -18 10 -20 21 -20 147 0 135 0 136 20 118 18 -16 20 -31
20 -147z m-3120 142 c0 -5 -7 -7 -15 -4 -8 4 -15 8 -15 10 0 2 7 4 15 4 8 0
15 -4 15 -10z m415 -30 c-16 -18 -31 -20 -143 -20 -124 0 -125 0 -107 20 16
18 31 20 143 20 124 0 125 0 107 -20z m1208 -212 c-132 -132 -159 -155 -161
-137 -3 17 32 58 155 181 132 132 159 155 161 137 3 -17 -32 -58 -155 -181z
m1557 45 c0 -121 -1 -123 -20 -113 -18 10 -20 21 -20 142 0 130 0 131 20 113
18 -16 20 -31 20 -142z m-2825 107 c-16 -18 -31 -20 -138 -20 -119 0 -120 0
-102 20 16 18 31 20 138 20 119 0 120 0 102 -20z m2883 -165 c-3 -113 -4 -118
-20 -101 -15 15 -18 37 -18 139 l0 121 20 -20 c19 -18 20 -31 18 -139z m-3879
44 c29 -45 53 -85 54 -90 3 -11 -285 -210 -297 -206 -14 5 -126 179 -122 191
2 8 292 182 307 185 4 1 30 -36 58 -80z m2269 -116 c-128 -128 -154 -150 -156
-132 -3 17 31 57 150 176 128 128 154 150 156 132 3 -17 -31 -57 -150 -176z
m-1338 172 c-10 -12 -37 -15 -127 -15 -102 0 -114 2 -103 15 10 12 37 15 127
15 102 0 114 -2 103 -15z m4160 -72 c83 -48 150 -92 150 -98 0 -5 -27 -52 -60
-103 l-60 -94 -28 19 c-89 58 -272 189 -272 195 0 13 103 168 112 168 4 0 76
-39 158 -87z m-1150 -79 c0 -97 -2 -113 -15 -108 -12 5 -15 29 -15 126 0 106
2 119 15 108 12 -10 15 -37 15 -126z m-3070 91 c-10 -12 -37 -15 -122 -15 -97
0 -109 2 -98 15 10 12 37 15 122 15 97 0 109 -2 98 -15z m1403 -197 c-124
-124 -149 -145 -151 -127 -3 17 30 56 145 171 124 124 149 145 151 127 3 -17
-30 -56 -145 -171z m1727 51 c0 -92 -2 -108 -15 -103 -12 5 -15 28 -15 121 0
102 2 114 15 103 12 -10 15 -37 15 -121z m-2717 73 c198 -145 462 -265 709
-322 l97 -22 6 -67 c3 -36 8 -83 11 -103 5 -36 4 -38 -20 -38 -90 0 -410 98
-577 177 -165 78 -439 254 -439 282 0 11 141 131 153 131 4 0 31 -17 60 -38z
m2462 -24 c41 -35 75 -65 75 -68 0 -10 -133 -107 -219 -160 -230 -143 -554
-267 -771 -296 l-53 -7 7 89 c4 49 9 96 12 106 3 11 29 21 82 33 221 49 493
167 677 294 55 38 104 70 108 70 4 1 41 -27 82 -61z m-2940 32 c-16 -17 -31
-20 -117 -20 -54 0 -98 4 -98 8 0 25 30 32 129 32 103 0 104 0 86 -20z m3265
-148 c0 -104 0 -105 -20 -87 -18 16 -20 31 -20 123 0 104 0 105 20 87 18 -16
20 -31 20 -123z m-1791 -68 c-134 -134 -158 -151 -159 -110 0 5 66 76 148 158
137 139 147 147 150 122 3 -23 -17 -47 -139 -170z m-1534 156 c-16 -17 -31
-20 -112 -20 -51 0 -93 4 -93 8 0 24 30 32 124 32 98 0 99 0 81 -20z m-599
-80 c28 -36 53 -70 57 -77 4 -7 -45 -55 -128 -125 -75 -62 -139 -114 -144
-116 -6 -2 -50 51 -143 174 -10 14 292 229 302 217 4 -5 29 -37 56 -73z m3984
-63 c0 -99 0 -100 -20 -82 -17 16 -20 31 -20 118 0 99 0 100 20 82 17 -16 20
-31 20 -118z m807 37 c76 -53 142 -100 147 -105 7 -6 -44 -80 -121 -176 l-18
-22 -135 114 c-74 62 -136 118 -138 123 -3 11 109 162 120 162 4 0 69 -43 145
-96z m-4252 46 c-16 -17 -31 -20 -107 -20 -48 0 -88 4 -88 8 0 24 30 32 119
32 93 0 94 0 76 -20z m1593 -177 c-120 -120 -144 -140 -146 -122 -3 17 29 55
140 166 120 120 144 140 146 122 3 -17 -29 -55 -140 -166z m1839 -46 l213
-175 -63 -54 c-93 -82 -175 -142 -303 -223 -111 -72 -352 -200 -359 -193 -8 8
17 206 37 298 31 145 72 261 150 418 l70 144 21 -20 c12 -11 118 -98 234 -195z
m73 85 c0 -94 0 -95 -20 -77 -17 16 -20 31 -20 113 0 94 0 95 20 77 17 -16 20
-31 20 -113z m-3096 -14 c74 -150 126 -298 156 -444 22 -106 38 -274 26 -274
-16 0 -267 133 -351 186 -86 54 -274 192 -343 252 l-33 29 232 191 c127 106
235 192 240 192 4 0 37 -60 73 -132z m-469 92 c-15 -17 -31 -20 -102 -20 -45
0 -83 4 -83 8 0 24 30 32 114 32 88 0 89 0 71 -20z m3147 -32 c-7 -7 -12 -8
-12 -2 0 14 12 26 19 19 2 -3 -1 -11 -7 -17z m478 -101 c0 -89 0 -90 -20 -72
-17 16 -20 31 -20 108 0 89 0 90 20 72 17 -16 20 -31 20 -108z m-3113 98 c8
-22 -6 -33 -17 -15 -13 20 -12 30 0 30 6 0 13 -7 17 -15z m1146 -167 c-116
-116 -139 -135 -141 -117 -3 17 28 54 135 161 116 116 139 135 141 117 3 -17
-28 -54 -135 -161z m1457 103 l-12 -26 -15 28 c-13 26 -13 30 4 42 26 19 40
-7 23 -44z m-3180 34 c-9 -11 -33 -15 -91 -15 -73 0 -90 6 -72 23 3 4 44 7 91
7 74 0 83 -2 72 -15z m627 -3 c10 -6 10 -15 1 -40 -15 -38 -25 -41 -34 -7 -11
43 5 65 33 47z m-921 -40 l21 -27 -93 -114 c-52 -62 -106 -127 -120 -144 l-26
-31 -44 50 c-24 27 -42 53 -41 58 3 10 269 235 277 235 3 0 15 -12 26 -27z
m3430 -8 c15 -36 12 -84 -5 -84 -5 0 -17 22 -28 48 -19 45 -19 50 -4 60 9 6
17 11 19 11 2 1 10 -15 18 -35z m614 -71 c0 -75 -2 -84 -15 -73 -11 9 -15 34
-15 97 0 75 2 84 15 73 11 -9 15 -34 15 -97z m518 -57 c45 -38 82 -74 82 -81
0 -13 -77 -91 -84 -84 -30 32 -226 273 -226 278 0 3 7 17 16 29 l15 22 57 -47
c32 -27 94 -79 140 -117z m-3582 100 c-8 -17 -19 -44 -27 -59 l-13 -28 -13 25
c-12 22 -10 31 8 70 19 38 25 43 40 33 16 -10 16 -14 5 -41z m-751 14 c-15
-17 -31 -20 -92 -20 -71 0 -73 1 -61 20 11 17 24 20 92 20 78 0 79 0 61 -20z
m1793 -157 c-112 -112 -134 -130 -136 -112 -3 17 27 53 130 156 112 112 134
130 136 112 3 -17 -27 -53 -130 -156z m1360 112 c23 -58 27 -91 14 -113 -6 -9
-19 11 -40 59 -40 89 -40 102 -2 108 3 1 15 -24 28 -54z m-2365 -53 c-44 -95
-49 -102 -58 -64 -4 22 2 47 24 97 27 59 32 65 50 56 19 -11 19 -13 -16 -89z
m3097 -19 c0 -40 -4 -73 -8 -73 -23 0 -32 30 -32 104 0 78 0 79 20 61 17 -15
20 -31 20 -92z m-775 -3 c32 -76 36 -95 29 -122 -9 -31 -10 -30 -57 77 -26 59
-46 114 -43 122 13 32 35 8 71 -77z m-3170 60 c-15 -16 -31 -20 -87 -20 -66 0
-68 1 -56 20 11 17 24 20 87 20 73 0 74 0 56 -20z m929 14 c12 -5 9 -18 -21
-82 -19 -42 -44 -97 -55 -122 l-21 -45 -9 33 c-7 28 -3 46 34 127 24 52 46 95
50 95 3 0 13 -3 22 -6z m930 -195 c-120 -120 -143 -135 -144 -95 0 5 60 70
133 143 123 125 132 132 135 107 3 -23 -15 -46 -124 -155z m1265 56 c44 -104
52 -131 46 -161 -3 -20 -8 -34 -10 -33 -1 2 -31 71 -66 152 -52 123 -60 150
-48 158 8 5 16 9 19 9 3 0 30 -56 59 -125z m-2132 107 c8 -5 -7 -47 -51 -142
-34 -74 -66 -146 -73 -160 -10 -25 -11 -25 -18 13 -6 33 0 54 51 167 33 71 64
129 69 129 6 1 15 -3 22 -7z m3013 -100 c0 -74 0 -75 -20 -57 -17 15 -20 31
-20 93 0 74 0 75 20 57 17 -15 20 -31 20 -93z m-923 -82 c64 -150 72 -174 65
-207 -8 -37 -10 -33 -90 154 -45 105 -82 196 -82 201 0 9 15 19 30 21 3 0 38
-76 77 -169z m-3142 140 c-14 -16 -31 -20 -82 -20 -61 0 -63 1 -51 20 11 17
24 20 82 20 68 0 69 0 51 -20z m1112 12 c9 -5 -14 -65 -80 -209 -90 -197 -92
-201 -100 -165 -7 32 0 53 54 172 103 225 100 219 126 202z m1991 -233 c59
-136 92 -224 90 -241 -2 -20 -7 -25 -16 -19 -8 4 -58 111 -112 237 -95 219
-104 253 -65 241 5 -2 51 -100 103 -218z m-1924 202 c9 -14 -196 -451 -216
-462 -35 -19 -20 33 58 201 42 91 87 189 99 218 22 48 46 65 59 43z m2946 -94
c0 -69 0 -70 -20 -52 -16 15 -20 31 -20 88 0 69 0 70 20 52 16 -15 20 -31 20
-88z m-2880 62 c0 -4 -34 -81 -75 -171 -49 -108 -84 -171 -102 -185 -15 -13
-31 -23 -35 -23 -3 0 35 89 85 199 76 166 93 197 109 193 10 -2 18 -8 18 -13z
m673 -151 c-107 -108 -129 -125 -131 -107 -3 17 26 52 125 151 107 108 129
125 131 107 3 -17 -26 -52 -125 -151z m1118 -36 c88 -203 88 -203 56 -183 -27
16 -44 48 -109 197 -43 97 -75 181 -72 186 18 29 43 -10 125 -200z m-3096 178
c-14 -16 -31 -20 -78 -20 -59 0 -60 0 -42 20 14 16 31 20 78 20 59 0 60 0 42
-20z m3005 -137 c34 -81 65 -154 68 -161 4 -11 -1 -11 -25 2 -25 13 -40 38
-89 151 -48 113 -55 138 -43 146 7 5 17 9 20 9 3 0 34 -66 69 -147z m-1644
129 c17 -11 -94 -250 -129 -275 -14 -12 -29 -19 -31 -16 -8 7 128 299 139 299
6 0 15 -4 21 -8z m2884 -100 c0 -64 0 -65 -20 -47 -16 15 -20 31 -20 83 0 64
0 65 20 47 16 -15 20 -31 20 -83z m-2821 79 c20 -13 -58 -180 -96 -203 -15
-10 -29 -16 -30 -14 -5 5 99 226 106 226 3 0 12 -4 20 -9z m1508 -111 c28 -66
48 -120 45 -120 -32 2 -59 37 -97 126 -23 54 -41 102 -38 107 2 4 12 7 21 7
13 0 32 -33 69 -120z m-1441 56 c-34 -80 -50 -103 -76 -113 l-28 -10 25 55
c45 101 51 111 72 105 19 -5 19 -8 7 -37z m1360 -40 c19 -44 32 -81 30 -83 -2
-2 -14 1 -27 6 -18 6 -33 28 -52 76 -15 36 -25 71 -21 76 14 24 38 -1 70 -75z
m-2916 59 c-8 -10 -31 -15 -67 -15 -48 0 -54 2 -43 15 8 10 31 15 67 15 48 0
54 -2 43 -15z m295 -15 c17 -19 14 -23 -100 -159 l-117 -140 -44 37 c-24 20
-43 41 -41 46 3 10 268 235 278 236 3 0 14 -9 24 -20z m1325 10 c12 -8 12 -14
-3 -45 -15 -31 -54 -60 -66 -49 -6 5 41 104 48 104 3 0 13 -4 21 -10z m428
-157 c-103 -104 -124 -120 -126 -102 -3 17 25 51 120 146 103 104 124 120 126
102 3 -17 -25 -51 -120 -146z m790 111 c13 -31 22 -58 20 -59 -2 -2 -13 1 -26
6 -23 9 -65 86 -56 101 3 4 13 8 22 8 11 0 25 -19 40 -56z m1425 -65 l134
-111 -49 -46 c-29 -27 -52 -42 -57 -36 -5 5 -59 69 -121 143 l-113 135 23 18
c13 10 29 17 36 14 8 -3 74 -55 147 -117z m-2567 90 c8 -13 -13 -34 -44 -44
-23 -7 -23 -7 -7 24 16 31 38 40 51 20z m1064 -19 c7 -17 11 -33 9 -35 -10 -9
-52 21 -60 43 -7 19 -5 22 15 22 17 0 27 -9 36 -30z m1610 -52 c0 -53 -2 -59
-15 -48 -10 9 -15 31 -15 72 0 53 2 59 15 48 10 -9 15 -31 15 -72z m-1686 57
c6 -16 -3 -19 -28 -9 -9 3 -13 10 -10 15 8 14 31 11 38 -6z m-931 -2 c-7 -2
-19 -2 -25 0 -7 3 -2 5 12 5 14 0 19 -2 13 -5z m-1818 -23 c-14 -15 -31 -20
-68 -20 -49 0 -50 0 -32 20 14 15 31 20 68 20 49 0 50 0 32 -20z m1955 -270
c12 -135 24 -267 27 -293 l6 -49 -49 7 c-208 28 -379 64 -539 115 -146 47
-286 103 -282 114 7 22 201 150 317 210 140 72 227 105 380 146 94 25 106 26
112 11 3 -9 16 -126 28 -261z m-1459 213 c46 -35 76 -63 73 -71 -6 -20 -198
-292 -206 -292 -3 0 -47 32 -98 71 -82 63 -90 73 -77 87 7 10 60 72 116 140
56 67 105 122 108 122 3 0 41 -26 84 -57z m2223 32 c224 -58 495 -193 659
-329 l29 -23 -79 -33 c-215 -90 -510 -166 -750 -193 -43 -5 -43 -5 -43 26 0
18 11 149 25 292 14 143 25 266 25 273 0 18 26 15 134 -13z m1491 -109 c60
-74 111 -138 112 -143 4 -10 -168 -143 -183 -143 -5 1 -55 67 -111 148 l-102
147 26 20 c14 11 49 39 77 62 28 23 56 42 61 42 6 0 59 -60 120 -133z m295 42
c0 -26 -4 -48 -8 -48 -20 0 -32 29 -32 79 0 53 0 54 20 36 15 -13 20 -31 20
-67z m-2387 -90 c-99 -100 -119 -115 -121 -97 -3 17 25 50 115 141 99 100 119
115 121 97 3 -17 -25 -50 -115 -141z m-2178 122 c-13 -14 -31 -20 -63 -20 -44
0 -45 0 -27 20 13 14 31 20 63 20 44 0 45 0 27 -20z m4625 -87 c0 -23 -4 -43
-8 -43 -20 0 -32 28 -32 74 0 48 0 49 20 31 14 -13 20 -31 20 -62z m-4685 27
c-12 -14 -31 -20 -58 -20 -39 0 -40 0 -22 20 12 14 31 20 58 20 39 0 40 0 22
-20z m2244 -146 c-62 -62 -116 -111 -121 -108 -22 14 1 47 110 156 110 112
117 118 120 92 3 -23 -13 -44 -109 -140z m2501 64 c0 -21 -4 -38 -8 -38 -19 0
-32 27 -32 69 0 43 0 44 20 26 13 -12 20 -31 20 -57z m-3924 0 c46 -29 84 -56
84 -60 0 -14 -177 -310 -186 -310 -18 0 -194 117 -192 127 4 13 201 295 206
295 3 0 42 -24 88 -52z m3293 -92 c56 -80 101 -149 101 -154 0 -11 -189 -136
-196 -130 -7 8 -175 301 -177 310 -2 8 149 115 165 117 3 1 52 -64 107 -143z
m-4174 114 c-12 -13 -31 -20 -53 -20 -34 0 -35 0 -17 20 12 13 31 20 53 20 34
0 35 0 17 -20z m2303 -167 c-95 -96 -114 -110 -116 -92 -3 17 24 49 110 136
95 96 114 110 116 92 3 -17 -24 -49 -110 -136z m2562 90 c0 -18 -4 -33 -8 -33
-19 0 -32 27 -32 64 0 38 0 39 20 21 12 -11 20 -31 20 -52z m-4930 12 c-7 -8
-26 -15 -42 -15 -26 0 -29 2 -18 15 7 8 26 15 42 15 26 0 29 -2 18 -15z m4990
-67 c0 -44 -24 -29 -28 17 -3 34 -2 37 12 26 9 -8 16 -27 16 -43z m-3745 -84
c-7 -32 -143 -314 -151 -314 -12 0 -204 105 -204 111 0 4 41 77 91 162 l90
156 90 -47 c76 -40 89 -50 84 -68z m1128 -36 c-91 -92 -109 -105 -111 -87 -3
17 23 48 105 131 91 92 109 105 111 87 3 -17 -23 -48 -105 -131z m1727 -165
c0 -16 -200 -117 -210 -106 -12 14 -153 323 -149 327 2 2 44 24 94 49 l89 44
88 -151 c48 -83 88 -157 88 -163z m-4160 292 c-7 -8 -24 -15 -37 -15 -22 0
-24 2 -13 15 7 8 24 15 37 15 22 0 24 -2 13 -15z m5110 -62 c0 -37 -24 -22
-28 17 -3 30 -2 32 12 21 9 -8 16 -25 16 -38z m-5175 -3 c-18 -20 -45 -27 -45
-12 0 15 24 32 44 32 18 0 19 -1 1 -20z m2503 -147 c-87 -88 -104 -100 -106
-82 -3 17 22 47 100 126 87 88 104 100 106 82 3 -17 -22 -47 -100 -126z m2742
85 c0 -16 -3 -17 -20 -8 -12 7 -20 21 -20 37 0 25 0 26 20 8 11 -10 20 -27 20
-37z m-3725 -5 c49 -20 91 -38 93 -39 3 -1 -118 -336 -125 -343 -4 -6 -186 66
-206 82 -14 11 -8 30 60 175 42 89 79 162 82 162 3 0 46 -17 96 -37z m2382
-124 c39 -85 72 -159 72 -165 1 -13 -194 -97 -211 -92 -10 4 -128 310 -128
333 0 11 168 84 185 81 5 -1 42 -72 82 -157z m-3962 131 c-10 -11 -25 -20 -33
-20 -12 0 -12 4 3 20 10 11 25 20 33 20 12 0 12 -4 -3 -20z m5365 -57 c0 -11
-4 -11 -20 -3 -11 6 -20 20 -20 32 0 20 1 21 20 3 11 -10 20 -24 20 -32z
m-2796 -114 c-54 -54 -101 -96 -106 -93 -22 14 0 47 95 142 96 97 102 101 105
76 3 -23 -12 -43 -94 -125z m-2629 111 c-10 -11 -23 -20 -28 -20 -6 0 -2 9 8
20 10 11 23 20 28 20 6 0 2 -9 -8 -20z m1972 -64 c3 -3 -89 -349 -94 -355 -4
-5 -143 37 -194 59 l-37 15 57 155 c31 85 60 162 63 171 6 15 17 14 105 -13
54 -17 99 -31 100 -32z m1802 -108 c34 -94 58 -175 54 -179 -13 -12 -213 -72
-219 -66 -6 6 -94 326 -94 342 0 8 158 69 191 74 3 1 34 -76 68 -171z m1711
119 c0 -6 -9 -2 -20 8 -11 10 -20 23 -20 28 0 6 9 2 20 -8 11 -10 20 -23 20
-28z m-5540 -1 c0 -2 -8 -10 -17 -17 -16 -13 -17 -12 -4 4 13 16 21 21 21 13z
m2689 -142 c-52 -52 -97 -94 -101 -94 -5 0 -8 10 -8 22 0 15 33 55 98 121 91
92 97 96 100 71 3 -23 -12 -42 -89 -120z m-515 97 c48 -11 90 -22 94 -25 5 -6
-25 -198 -50 -317 l-9 -47 -87 20 c-48 10 -99 21 -114 25 -17 3 -28 12 -28 21
0 14 71 287 85 330 6 15 5 16 109 -7z m1400 -157 c26 -97 46 -177 44 -179 -2
-1 -45 -12 -96 -24 -97 -22 -142 -26 -142 -13 0 4 -13 83 -30 176 -16 93 -29
171 -27 172 5 5 163 42 183 43 19 1 26 -16 68 -175z m2017 159 c13 -16 12 -17
-3 -4 -17 13 -22 21 -14 21 2 0 10 -8 17 -17z m-3138 -49 l67 -7 0 -41 c-1
-73 -26 -315 -33 -322 -8 -9 -219 14 -228 24 -4 4 8 87 25 185 l31 179 35 -6
c19 -3 65 -8 103 -12z m831 -11 c11 -51 56 -317 56 -328 0 -7 -38 -16 -89 -23
-125 -17 -151 -16 -151 6 0 9 -7 89 -15 176 -8 88 -12 162 -9 165 5 6 134 27
181 30 16 1 23 -6 27 -26z m-596 -120 c-79 -80 -93 -90 -96 -72 -3 16 20 45
90 116 79 80 93 90 96 72 3 -16 -20 -45 -90 -116z m5 -85 c-75 -76 -88 -86
-91 -67 -3 16 19 44 85 111 75 76 88 86 91 67 3 -16 -19 -44 -85 -111z m3 -87
c-70 -70 -86 -82 -92 -67 -5 13 15 39 82 107 76 77 89 87 92 68 3 -17 -18 -44
-82 -108z m-133 -8 c5 -66 4 -73 -12 -73 -16 0 -18 7 -14 53 5 58 12 101 17
96 2 -2 6 -37 9 -76z m141 -74 c-43 -44 -82 -79 -86 -79 -5 0 -8 10 -8 22 0
15 29 51 83 106 78 79 82 81 85 56 3 -22 -10 -41 -74 -105z m356 34 c0 -18 -4
-33 -10 -33 -5 0 -10 21 -10 48 0 34 3 43 10 32 5 -8 10 -30 10 -47z m-357
-115 c-67 -68 -78 -76 -81 -57 -3 16 17 42 75 101 67 68 78 76 81 57 3 -16
-17 -42 -75 -101z m6 -84 c-61 -61 -75 -71 -80 -57 -5 13 13 38 70 96 66 67
76 75 79 56 3 -16 -16 -41 -69 -95z m5 -85 c-38 -38 -72 -69 -76 -69 -25 0 1
44 65 108 62 63 72 70 75 51 3 -16 -15 -40 -64 -90z m5 -85 c-35 -35 -67 -64
-71 -64 -4 0 -8 10 -8 22 0 14 25 48 68 91 65 66 67 67 70 41 3 -22 -9 -39
-59 -90z m-3 -83 c-59 -59 -66 -63 -66 -41 0 17 20 45 63 88 55 55 62 60 65
41 3 -16 -14 -40 -62 -88z m8 -82 c-49 -50 -60 -56 -65 -42 -5 13 10 35 55 81
53 55 61 60 64 41 3 -16 -13 -38 -54 -80z m5 -85 c-29 -30 -57 -54 -61 -54
-23 0 -1 41 50 93 50 51 57 55 60 36 3 -15 -12 -37 -49 -75z m5 -85 c-54 -55
-64 -59 -64 -27 0 14 21 44 53 76 51 52 52 53 55 26 3 -21 -7 -37 -44 -75z
m-3 -83 c-47 -47 -51 -49 -51 -26 0 16 17 41 48 73 43 44 47 46 50 26 3 -16
-11 -37 -47 -73z m8 -82 c-36 -37 -45 -42 -52 -28 -7 12 2 28 39 66 44 44 49
47 52 27 3 -15 -10 -35 -39 -65z m5 -85 c-21 -22 -42 -39 -46 -39 -21 0 -4 39
35 78 38 39 42 41 45 21 3 -14 -9 -34 -34 -60z m5 -85 c-38 -40 -49 -42 -49
-12 0 12 17 39 38 61 l37 38 3 -27 c3 -19 -5 -36 -29 -60z m-3 -83 c-35 -35
-36 -35 -36 -11 0 14 14 38 33 58 31 32 32 32 35 11 3 -15 -8 -34 -32 -58z m8
-82 c-24 -25 -29 -27 -37 -13 -7 12 -1 25 24 51 32 32 34 33 37 13 2 -14 -7
-33 -24 -51z m5 -85 c-12 -13 -26 -24 -31 -24 -17 0 -7 35 20 63 26 28 27 28
30 7 2 -13 -6 -32 -19 -46z m5 -85 c-9 -10 -21 -19 -26 -19 -17 0 -7 44 15 68
l22 24 3 -27 c2 -15 -4 -35 -14 -46z m-3 -83 l-21 -20 0 23 c0 14 8 33 18 44
17 19 17 19 20 -3 2 -13 -5 -31 -17 -44z m8 -82 c-11 -14 -14 -13 -22 1 -6 12
-3 22 10 37 l18 20 3 -21 c2 -12 -2 -29 -9 -37z m-3 -92 c-15 -15 -16 -14 -16
9 0 14 6 31 13 38 10 10 13 8 15 -10 2 -12 -3 -29 -12 -37z m5 -85 c-8 -8 -11
-2 -11 19 0 40 14 54 18 19 2 -15 -1 -32 -7 -38z m6 -64 c-3 -10 -5 -4 -5 12
0 17 2 24 5 18 2 -7 2 -21 0 -30z m0 -75 c-3 -8 -6 -5 -6 6 -1 11 2 17 5 13 3
-3 4 -12 1 -19z"/>
<path d="M4880 7750 c-30 -30 -27 -83 6 -109 15 -12 34 -21 44 -21 33 0 70 39
70 73 0 38 -7 50 -37 66 -32 16 -60 14 -83 -9z"/>
<path d="M6480 7780 c-45 -45 -11 -120 54 -120 37 0 76 36 76 70 0 10 -9 29
-21 44 -26 33 -79 36 -109 6z"/>
<path d="M4973 7419 c3 -63 8 -124 12 -136 7 -21 4 -23 -27 -23 -36 0 -158
-55 -158 -71 0 -15 103 -91 165 -120 33 -16 74 -29 90 -29 22 0 37 -9 57 -34
80 -100 199 -49 184 79 -4 36 -2 57 8 71 21 30 45 122 46 179 3 101 1 115 -17
115 -31 -1 -104 -39 -133 -70 l-29 -31 -32 40 c-28 35 -117 112 -158 136 -11
6 -13 -11 -8 -106z m110 -13 c35 -35 70 -78 77 -96 l13 -32 23 45 c23 44 63
77 113 92 l24 7 -6 -73 c-8 -92 -21 -137 -50 -181 -16 -23 -21 -40 -16 -53 25
-65 -3 -135 -55 -135 -28 0 -82 42 -91 69 -4 14 -16 18 -45 18 -45 0 -145 46
-199 92 l-35 29 42 21 c44 22 111 28 143 11 24 -13 25 -1 3 43 -20 38 -33 207
-16 207 6 0 40 -29 75 -64z"/>
<path d="M6503 7497 c-28 -27 -68 -73 -89 -103 l-38 -54 -25 24 c-28 27 -99
56 -137 56 -21 0 -24 -5 -24 -37 0 -80 39 -202 78 -246 11 -13 17 -38 17 -79
0 -55 3 -62 34 -90 28 -25 39 -29 69 -24 36 5 88 46 97 76 3 9 25 21 50 28 60
16 115 51 183 119 l57 56 -55 25 c-33 15 -74 26 -102 26 l-47 1 0 100 c-1 55
-5 116 -9 135 l-8 35 -51 -48z m40 -182 c-6 -33 -14 -69 -19 -79 -6 -16 -4
-18 12 -12 70 30 74 30 121 18 73 -20 75 -28 18 -79 -60 -54 -134 -93 -174
-93 -21 0 -32 -6 -36 -20 -4 -11 -18 -34 -32 -50 -31 -38 -70 -40 -103 -5 -20
21 -22 31 -17 78 4 46 2 56 -18 75 -30 29 -63 116 -71 187 -6 50 -5 55 12 55
31 0 98 -44 119 -77 11 -18 22 -32 25 -33 3 0 15 21 27 48 12 26 46 74 75 106
l53 60 9 -60 c6 -38 5 -80 -1 -119z"/>
<path d="M3770 6590 c-26 -26 -26 -81 0 -105 46 -42 120 -10 120 52 0 42 -30
73 -70 73 -17 0 -39 -9 -50 -20z"/>
<path d="M7640 6670 c-45 -45 -11 -120 53 -120 42 0 70 29 70 70 0 63 -78 95
-123 50z"/>
<path d="M4299 6718 c-15 -32 -24 -69 -23 -97 l0 -46 -110 -1 c-61 0 -122 -5
-135 -11 -23 -9 -22 -11 42 -74 36 -36 82 -74 101 -84 34 -19 47 -35 27 -35
-16 0 -54 -71 -67 -126 -14 -62 -18 -60 84 -44 84 14 150 37 189 66 24 19 44
24 87 24 43 0 61 5 81 23 54 46 35 137 -34 168 -20 9 -31 21 -31 34 0 38 -52
127 -113 191 -32 35 -63 64 -66 64 -4 0 -18 -23 -32 -52z m160 -140 c11 -24
21 -56 21 -71 0 -21 8 -31 40 -47 43 -22 60 -45 60 -83 0 -46 -64 -78 -119
-59 -25 9 -32 7 -48 -10 -10 -11 -35 -29 -55 -39 -37 -19 -147 -49 -180 -49
-43 0 5 110 62 143 l38 21 -56 28 c-70 34 -159 115 -144 130 11 11 190 6 229
-7 23 -7 23 -7 8 29 -19 46 -19 76 2 128 l17 41 51 -55 c29 -31 62 -76 74
-100z"/>
<path d="M7130 6693 c-49 -66 -86 -141 -95 -195 -5 -25 -21 -51 -46 -77 -51
-51 -54 -98 -8 -143 29 -29 33 -30 89 -25 48 5 66 3 92 -12 18 -11 52 -24 75
-30 43 -12 200 -18 209 -9 12 12 -39 119 -69 145 l-32 28 58 54 c53 50 117
129 117 147 0 8 -201 -2 -243 -12 -22 -5 -26 -3 -21 9 12 33 -48 177 -74 177
-5 0 -28 -26 -52 -57z m100 -100 c0 -12 -5 -34 -10 -49 -6 -15 -9 -28 -8 -30
2 -1 29 6 61 17 42 14 79 19 130 17 l72 -3 -60 -64 c-33 -35 -77 -72 -98 -82
-36 -19 -42 -39 -12 -39 34 0 105 -85 105 -126 0 -15 -9 -16 -75 -10 -86 8
-150 28 -181 57 -18 17 -26 19 -42 10 -31 -16 -93 -13 -114 6 -10 9 -18 30
-18 49 0 25 8 40 38 66 32 27 40 42 45 82 8 53 42 124 90 182 l31 37 23 -49
c13 -27 23 -59 23 -71z"/>
<path d="M3806 4987 c-33 -33 -33 -71 -1 -102 31 -32 69 -32 102 1 20 20 24
31 19 57 -4 17 -12 37 -19 44 -7 7 -27 15 -44 19 -26 5 -37 1 -57 -19z"/>
<path d="M7673 5064 c-20 -20 -24 -31 -19 -57 9 -44 29 -61 72 -61 68 0 97 72
49 119 -31 32 -69 32 -102 -1z"/>
<path d="M4100 5347 c0 -35 34 -107 65 -137 l33 -32 -56 -53 c-31 -29 -72 -73
-90 -98 l-33 -46 36 -7 c39 -7 156 2 205 16 30 8 30 8 30 -29 0 -37 40 -130
64 -151 11 -8 25 4 65 57 53 71 91 154 91 201 0 20 8 33 29 45 37 22 64 79 56
116 -12 56 -73 88 -136 71 -34 -10 -43 -8 -69 10 -56 40 -290 70 -290 37z
m189 -28 c28 -6 67 -22 87 -35 35 -24 39 -24 85 -13 45 12 51 11 77 -8 48 -36
38 -95 -24 -133 -27 -17 -31 -26 -31 -60 0 -47 -39 -131 -86 -185 l-34 -39
-19 29 c-14 22 -19 47 -19 97 0 57 -2 67 -15 62 -51 -20 -137 -35 -187 -32
l-57 3 59 63 c32 35 78 75 102 89 l45 26 -33 14 c-18 8 -42 22 -52 31 -17 15
-57 83 -57 97 0 9 107 5 159 -6z"/>
<path d="M7295 5350 c-64 -13 -126 -38 -160 -64 -25 -20 -40 -23 -72 -19 -45
6 -96 -15 -113 -46 -26 -50 -1 -116 54 -146 25 -14 36 -26 36 -43 0 -40 48
-120 114 -190 l64 -67 26 55 c16 34 26 73 26 102 l0 47 85 0 c95 0 175 9 175
21 0 14 -110 118 -153 146 l-43 26 28 30 c25 27 58 110 58 145 0 15 -59 16
-125 3z m90 -42 c-16 -54 -44 -94 -78 -113 -20 -11 -37 -22 -36 -25 0 -3 26
-17 57 -32 31 -15 80 -49 107 -75 l50 -47 -45 -8 c-49 -10 -155 -3 -195 12
-14 5 -25 8 -25 7 0 -1 7 -23 15 -49 12 -42 12 -54 -1 -98 -8 -27 -19 -50 -23
-50 -15 0 -101 101 -122 142 -10 20 -21 52 -23 69 -2 25 -11 36 -39 51 -46 23
-71 67 -57 102 14 37 45 49 106 42 40 -5 53 -3 57 8 14 35 140 84 220 85 35 1
38 -1 32 -21z"/>
<path d="M5106 4589 c-14 -11 -33 -34 -41 -50 -10 -19 -23 -29 -38 -29 -37 -1
-98 -34 -165 -90 -92 -77 -94 -85 -30 -115 33 -15 71 -25 100 -25 l48 0 -6
-44 c-8 -52 3 -185 16 -206 14 -23 79 43 176 179 2 2 17 -8 34 -23 28 -23 114
-56 148 -56 34 0 -18 224 -64 279 -17 21 -25 41 -24 63 4 62 0 76 -26 107 -32
38 -87 43 -128 10z m124 -50 c9 -21 10 -40 2 -69 -9 -35 -8 -42 8 -50 27 -14
67 -106 80 -184 7 -37 10 -69 8 -71 -8 -9 -76 16 -102 36 -15 11 -34 35 -43
52 l-16 31 -27 -55 c-37 -72 -120 -165 -131 -147 -12 19 -11 156 2 201 6 22 9
41 7 42 -2 2 -22 -2 -44 -10 -43 -14 -88 -9 -134 15 l-24 13 54 49 c62 54 126
89 172 93 23 2 34 9 43 31 13 31 40 58 65 66 27 9 68 -13 80 -43z"/>
<path d="M6295 4588 c-43 -25 -60 -74 -45 -127 7 -25 4 -41 -16 -79 -29 -56
-44 -132 -44 -219 l0 -65 28 7 c51 12 113 47 134 76 l21 28 33 -43 c46 -60
154 -141 165 -124 15 23 8 150 -13 237 -2 9 6 15 22 16 56 3 67 6 118 36 53
30 54 31 35 51 -38 43 -163 117 -221 129 -43 10 -64 21 -87 47 -33 37 -94 52
-130 30z m93 -34 c12 -8 29 -28 36 -43 12 -23 20 -27 45 -23 46 7 231 -88 231
-119 0 -6 -21 -19 -46 -31 -45 -19 -91 -20 -139 -2 -16 6 -16 5 -2 -22 30 -60
51 -234 28 -234 -18 0 -136 125 -150 158 -17 41 -24 40 -40 -3 -14 -39 -61
-80 -103 -90 l-28 -7 0 58 c0 73 21 153 50 194 19 26 20 35 11 62 -16 46 -13
76 9 98 24 24 67 26 98 4z"/>
<path d="M4965 3875 c-62 -61 10 -155 86 -114 48 25 43 110 -8 130 -37 14 -52
11 -78 -16z"/>
<path d="M6561 3904 c-24 -31 -26 -43 -10 -78 32 -68 139 -42 139 33 0 34 -39
71 -75 71 -24 0 -39 -7 -54 -26z"/>
</g>
</svg>
